<?xml version="1.0" encoding="UTF-8" standalone="no"?>
<!DOCTYPE svg PUBLIC "-//W3C//DTD SVG 1.1//EN" "http://www.w3.org/Graphics/SVG/1.1/DTD/svg11.dtd">
<svg width="100%" height="100%" viewBox="0 0 64 15" version="1.1" xmlns="http://www.w3.org/2000/svg" xmlns:xlink="http://www.w3.org/1999/xlink" xml:space="preserve" xmlns:serif="http://www.serif.com/" style="fill-rule:evenodd;clip-rule:evenodd;stroke-linejoin:round;stroke-miterlimit:1.41421;">
    <path d="M5,10L5,12L3,12L3,10L5,10ZM13,10L13,12L11,12L11,10L13,10ZM21,10L21,12L19,12L19,10L21,10ZM29,10L29,12L27,12L27,10L29,10ZM37,10L37,12L35,12L35,10L37,10ZM45,10L45,12L43,12L43,10L45,10ZM53,10L53,12L51,12L51,10L53,10ZM61,10L61,12L59,12L59,10L61,10ZM9,6L9,8L7,8L7,6L9,6ZM17,6L17,8L15,8L15,6L17,6ZM25,6L25,8L23,8L23,6L25,6ZM33,6L33,8L31,8L31,6L33,6ZM41,6L41,8L39,8L39,6L41,6ZM49,6L49,8L47,8L47,6L49,6ZM57,6L57,8L55,8L55,6L57,6ZM5,2L5,4L3,4L3,2L5,2ZM13,2L13,4L11,4L11,2L13,2ZM21,2L21,4L19,4L19,2L21,2ZM29,2L29,4L27,4L27,2L29,2ZM37,2L37,4L35,4L35,2L37,2ZM45,2L45,4L43,4L43,2L45,2ZM53,2L53,4L51,4L51,2L53,2ZM61,2L61,4L59,4L59,2L61,2Z" style="fill:rgb(235,235,235);"/>
</svg>
