<?xml version="1.0" encoding="UTF-8" standalone="no"?>
<!DOCTYPE svg PUBLIC "-//W3C//DTD SVG 1.1//EN" "http://www.w3.org/Graphics/SVG/1.1/DTD/svg11.dtd">
<svg width="100%" height="100%" viewBox="0 0 20 20" version="1.1" xmlns="http://www.w3.org/2000/svg" xmlns:xlink="http://www.w3.org/1999/xlink" xml:space="preserve" style="fill-rule:evenodd;clip-rule:evenodd;stroke-linejoin:round;stroke-miterlimit:1.41421;">
    <path id="Outline" d="M7,0L7,7L0,7L0,19L12,19L12,12L19,12L19,2L17,0L7,0Z" style="fill:rgb(246,246,246);fill-rule:nonzero;"/>
    <path id="Bg" d="M4,12L9,12L9,8L11,10L11,18L1,18L1,8L4,8L4,12ZM11,5L16,5L16,1L18,3L18,11L12,11L12,9L10,7L8,7L8,1L11,1L11,5ZM8,11L6,11L6,8L8,8L8,11ZM15,4L13,4L13,1L15,1L15,4Z" style="fill:rgb(0,83,156);"/>
</svg>
