<?xml version="1.0" encoding="UTF-8" standalone="no"?>
<!DOCTYPE svg PUBLIC "-//W3C//DTD SVG 1.1//EN" "http://www.w3.org/Graphics/SVG/1.1/DTD/svg11.dtd">
<svg width="100%" height="100%" viewBox="0 0 20 20" version="1.1" xmlns="http://www.w3.org/2000/svg" xmlns:xlink="http://www.w3.org/1999/xlink" xml:space="preserve" style="fill-rule:evenodd;clip-rule:evenodd;stroke-linejoin:round;stroke-miterlimit:1.41421;">
    <path id="ArrowOutline" d="M4.211,4.596C6.75,2.058 10.865,2.058 13.404,4.596C13.404,4.596 13.404,4.596 13.404,4.596L13.404,0.354L18,4.95L18,12.021L10.929,12.021L9.515,13.435L13.05,16.971L10.222,19.799C10.222,19.799 7.076,16.654 4.211,13.789C1.673,11.25 1.673,7.135 4.211,4.596C4.211,4.596 4.211,4.596 4.211,4.596Z" style="fill:rgb(204,204,204);"/>
    <path id="ArrowFg" d="M4.919,5.303C5.95,4.272 7.349,3.692 8.808,3.692C10.266,3.692 11.665,4.272 12.697,5.303C13.681,6.287 14.464,7.071 14.464,7.071L14.464,2.828L16.586,4.95L16.586,10.607L10.929,10.607L8.808,8.485L13.05,8.485C13.05,8.485 12.213,7.648 11.282,6.718C9.916,5.351 7.7,5.351 6.333,6.718C4.966,8.084 4.966,10.3 6.333,11.667C8.61,13.944 11.636,16.971 11.636,16.971L10.222,18.385C10.222,18.385 7.426,15.589 4.919,13.081C3.887,12.05 3.308,10.651 3.308,9.192C3.308,7.734 3.887,6.335 4.919,5.303C4.919,5.303 4.919,5.303 4.919,5.303Z" style="fill:rgb(0,83,156);"/>
</svg>
