<?xml version="1.0" encoding="UTF-8" standalone="no"?>
<!DOCTYPE svg PUBLIC "-//W3C//DTD SVG 1.1//EN" "http://www.w3.org/Graphics/SVG/1.1/DTD/svg11.dtd">
<svg width="100%" height="100%" viewBox="0 0 20 20" version="1.1" xmlns="http://www.w3.org/2000/svg" xmlns:xlink="http://www.w3.org/1999/xlink" xml:space="preserve" style="fill-rule:evenodd;clip-rule:evenodd;stroke-linejoin:round;stroke-miterlimit:1.41421;">
    <path id="ArrowOutline" d="M15.787,4.595C14.569,3.376 12.916,2.692 11.192,2.692C9.469,2.692 7.816,3.376 6.598,4.595C6.597,4.596 6.596,4.596 6.596,4.596L6.596,0.354L2,4.95L2,12.021L9.071,12.021L10.485,13.435L6.95,16.971L9.778,19.799C9.778,19.799 12.924,16.654 15.789,13.789C18.327,11.25 18.327,7.135 15.789,4.596C15.788,4.596 15.788,4.595 15.787,4.595Z" style="fill:rgb(204,204,204);"/>
    <path id="ArrowFg" d="M15.081,5.303C14.05,4.272 12.651,3.692 11.192,3.692C9.734,3.692 8.335,4.272 7.303,5.303C6.319,6.287 5.536,7.071 5.536,7.071L5.536,2.828L3.414,4.95L3.414,10.607L9.071,10.607L11.192,8.485L6.95,8.485C6.95,8.485 7.787,7.648 8.718,6.718C10.084,5.351 12.3,5.351 13.667,6.718C15.034,8.084 15.034,10.3 13.667,11.667C11.39,13.944 8.364,16.971 8.364,16.971L9.778,18.385C9.778,18.385 12.574,15.589 15.081,13.081C16.113,12.05 16.692,10.651 16.692,9.192C16.692,7.734 16.113,6.335 15.081,5.303C15.081,5.303 15.081,5.303 15.081,5.303Z" style="fill:rgb(0,83,156);"/>
</svg>
