<?xml version="1.0" encoding="UTF-8" standalone="no"?>
<!DOCTYPE svg PUBLIC "-//W3C//DTD SVG 1.1//EN" "http://www.w3.org/Graphics/SVG/1.1/DTD/svg11.dtd">
<svg width="100%" height="100%" viewBox="0 0 16 16" version="1.1" xmlns="http://www.w3.org/2000/svg" xmlns:xlink="http://www.w3.org/1999/xlink" xml:space="preserve" style="fill-rule:evenodd;clip-rule:evenodd;stroke-linejoin:round;stroke-miterlimit:1.41421;">
    <path id="Outline" d="M16,8C16,12.418 12.418,16 8,16C3.582,16 0,12.418 0,8C0,3.582 3.582,0 8,0C12.418,0 16,3.582 16,8" style="fill:rgb(246,246,246);fill-rule:nonzero;"/>
    <path id="Bg" d="M6.655,3.183C6.793,2.318 6.967,1.59 7.166,1.049C7.439,1.017 7.718,1 8,1C8.282,1 8.561,1.017 8.834,1.049C9.033,1.59 9.207,2.318 9.345,3.183C9.736,3.292 10.108,3.448 10.455,3.643C11.164,3.129 11.801,2.737 12.324,2.495C12.763,2.84 13.16,3.237 13.505,3.676C13.263,4.199 12.871,4.836 12.357,5.545C12.552,5.892 12.708,6.264 12.817,6.655C13.682,6.793 14.41,6.967 14.951,7.166C14.983,7.439 15,7.718 15,8C15,8.282 14.983,8.561 14.951,8.834C14.41,9.033 13.682,9.207 12.817,9.345C12.708,9.736 12.552,10.108 12.357,10.455C12.871,11.164 13.263,11.801 13.505,12.324C13.16,12.763 12.763,13.16 12.324,13.505C11.801,13.263 11.164,12.871 10.455,12.357C10.108,12.552 9.736,12.708 9.345,12.817C9.207,13.682 9.033,14.41 8.834,14.951C8.561,14.983 8.282,15 8,15C7.718,15 7.439,14.983 7.166,14.951C6.967,14.41 6.793,13.682 6.655,12.817C6.264,12.708 5.892,12.552 5.545,12.357C4.836,12.871 4.199,13.263 3.676,13.505C3.237,13.16 2.84,12.763 2.495,12.324C2.737,11.801 3.129,11.164 3.643,10.455C3.448,10.108 3.292,9.736 3.183,9.345C2.318,9.207 1.59,9.033 1.049,8.834C1.017,8.561 1,8.282 1,8C1,7.718 1.017,7.439 1.049,7.166C1.59,6.967 2.318,6.793 3.183,6.655C3.292,6.264 3.448,5.892 3.643,5.545C3.129,4.836 2.737,4.199 2.495,3.676C2.84,3.237 3.237,2.84 3.676,2.495C4.199,2.737 4.836,3.129 5.545,3.643C5.892,3.448 6.264,3.292 6.655,3.183ZM10,8C10,9.105 9.104,10 8,10C6.896,10 6,9.105 6,8C6,6.895 6.896,6 8,6C9.104,6 10,6.895 10,8Z" style="fill:rgb(51,51,51);"/>
</svg>
