<?xml version="1.0" encoding="UTF-8" standalone="no"?>
<!DOCTYPE svg PUBLIC "-//W3C//DTD SVG 1.1//EN" "http://www.w3.org/Graphics/SVG/1.1/DTD/svg11.dtd">
<svg width="100%" height="100%" viewBox="0 0 20 20" version="1.1" xmlns="http://www.w3.org/2000/svg" xmlns:xlink="http://www.w3.org/1999/xlink" xml:space="preserve" style="fill-rule:evenodd;clip-rule:evenodd;stroke-linejoin:round;stroke-miterlimit:1.41421;">
    <path id="Outline" d="M19,10C19,14.97 14.97,19 10,19C5.03,19 1,14.97 1,10C1,5.03 5.03,1 10,1C14.97,1 19,5.03 19,10" style="fill:rgb(246,246,246);fill-rule:nonzero;"/>
    <path id="Bg" d="M8.414,4.212C8.549,3.38 8.712,2.657 8.897,2.075C9.257,2.026 9.626,2 10,2C10.374,2 10.743,2.026 11.103,2.075C11.288,2.657 11.451,3.38 11.586,4.212C12.075,4.346 12.54,4.54 12.971,4.786C13.655,4.293 14.281,3.897 14.823,3.617C15.412,4.062 15.937,4.588 16.383,5.177C16.103,5.719 15.707,6.345 15.214,7.029C15.46,7.46 15.654,7.925 15.788,8.414C16.62,8.549 17.343,8.712 17.924,8.897C17.974,9.257 18,9.626 18,10C18,10.374 17.974,10.743 17.924,11.103C17.343,11.288 16.62,11.451 15.788,11.586C15.654,12.075 15.46,12.54 15.214,12.971C15.707,13.654 16.103,14.281 16.383,14.823C15.937,15.412 15.412,15.937 14.823,16.383C14.281,16.103 13.655,15.707 12.971,15.214C12.54,15.46 12.075,15.654 11.586,15.788C11.451,16.62 11.288,17.343 11.103,17.924C10.743,17.974 10.374,18 10,18C9.626,18 9.257,17.974 8.897,17.924C8.712,17.343 8.549,16.62 8.414,15.788C7.925,15.654 7.46,15.46 7.029,15.214C6.345,15.707 5.719,16.103 5.177,16.383C4.588,15.937 4.063,15.412 3.617,14.823C3.897,14.281 4.293,13.654 4.786,12.971C4.54,12.54 4.346,12.075 4.212,11.586C3.38,11.451 2.657,11.288 2.076,11.103C2.026,10.743 2,10.374 2,10C2,9.626 2.026,9.257 2.076,8.897C2.657,8.712 3.38,8.549 4.212,8.414C4.346,7.925 4.54,7.46 4.786,7.029C4.293,6.345 3.897,5.719 3.617,5.177C4.063,4.588 4.588,4.062 5.177,3.617C5.719,3.897 6.345,4.293 7.029,4.786C7.46,4.54 7.925,4.346 8.414,4.212ZM13,10C13,11.657 11.657,13 10,13C8.343,13 7,11.657 7,10C7,8.343 8.343,7 10,7C11.657,7 13,8.343 13,10Z" style="fill:rgb(51,51,51);"/>
</svg>
