<?xml version="1.0" encoding="UTF-8" standalone="no"?><!DOCTYPE svg PUBLIC "-//W3C//DTD SVG 1.1//EN" "http://www.w3.org/Graphics/SVG/1.1/DTD/svg11.dtd"><svg width="100%" height="100%" viewBox="0 0 22 28" version="1.1" xmlns="http://www.w3.org/2000/svg" xmlns:xlink="http://www.w3.org/1999/xlink" xml:space="preserve" style="fill-rule:evenodd;clip-rule:evenodd;stroke-linejoin:round;stroke-miterlimit:1.41421;"><path d="M9.064,0.332l0.028,0.001l0.028,0.002l0.028,0.003l0.027,0.004l0.028,0.004l0.027,0.006l0.027,0.006l0.027,0.006l0.027,0.008l0.027,0.008l0.026,0.009l0.026,0.01l0.026,0.011l0.025,0.011l0.026,0.013l0.025,0.012l0.024,0.014l0.025,0.015l0.024,0.015l0.023,0.016l0.023,0.016l0.023,0.018l0.022,0.018l0.021,0.018l0.021,0.019l0.02,0.02l0.02,0.02l0.019,0.021l0.018,0.021l0.018,0.022l0.017,0.022l0.016,0.023l0.016,0.023l0.015,0.023l0.014,0.024l0.014,0.025l0.012,0.024l0.012,0.025l0.012,0.026l0.011,0.025l0.009,0.026l0.01,0.027l0.008,0.026l0.008,0.027l0.007,0.027l0.006,0.028l0.005,0.027l0.005,0.028l0.003,0.028l0.003,0.028l0.002,0.028l0.002,0.029l0,0.028l0,25.28l0,0.029l-0.002,0.03l-0.002,0.03l-0.003,0.029l-0.004,0.03l-0.005,0.029l-0.006,0.029l-0.007,0.028l-0.007,0.028l-0.009,0.028l-0.009,0.028l-0.01,0.028l-0.011,0.027l-0.012,0.026l-0.012,0.027l-0.013,0.026l-0.015,0.025l-0.014,0.025l-0.016,0.025l-0.016,0.024l-0.017,0.024l-0.018,0.023l-0.019,0.023l-0.019,0.022l-0.02,0.021l-0.02,0.021l-0.021,0.021l-0.022,0.019l-0.023,0.02l-0.023,0.018l-0.024,0.018l-0.025,0.017l-0.025,0.017l-0.025,0.015l-0.026,0.015l-0.026,0.014l-0.027,0.013l-0.027,0.012l-0.027,0.011l-0.027,0.011l-0.028,0.009l-0.028,0.009l-0.028,0.008l-0.028,0.007l-0.029,0.006l-0.028,0.005l-0.029,0.005l-0.029,0.003l-0.029,0.003l-0.029,0.002l-0.029,0.001l-0.029,0l-0.03,-0.001l-0.029,-0.002l-0.029,-0.002l-0.029,-0.004l-0.029,-0.004l-0.029,-0.005l-0.029,-0.007l-0.029,-0.007l-0.028,-0.008l-0.028,-0.009l-0.029,-0.009l-0.028,-0.011l-8.071,-3.229l-0.034,-0.014l-0.033,-0.015l-0.032,-0.017l-0.032,-0.018l-0.031,-0.019l-0.03,-0.02l-0.029,-0.021l-0.028,-0.022l-0.027,-0.023l-0.027,-0.024l-0.025,-0.024l-0.024,-0.026l-0.024,-0.027l-0.022,-0.027l-0.022,-0.028l-0.02,-0.029l-0.019,-0.03l-0.019,-0.03l-0.017,-0.031l-0.016,-0.032l-0.015,-0.032l-0.013,-0.033l-0.013,-0.033l-0.011,-0.034l-0.01,-0.035l-0.008,-0.034l-0.008,-0.036l-0.006,-0.035l-0.005,-0.036l-0.003,-0.037l-0.002,-0.036l-0.001,-0.037l0,-19.629l0.001,-0.04l0.002,-0.04l0.004,-0.039l0.006,-0.038l0.007,-0.039l0.008,-0.037l0.011,-0.038l0.011,-0.036l0.013,-0.036l0.014,-0.036l0.016,-0.035l0.017,-0.034l0.018,-0.033l0.02,-0.033l0.021,-0.031l0.022,-0.031l0.023,-0.03l0.024,-0.029l0.026,-0.028l0.027,-0.027l0.027,-0.026l0.029,-0.025l0.03,-0.024l0.031,-0.023l0.032,-0.022l0.032,-0.02l0.034,-0.019l0.035,-0.018l0.035,-0.016l0.036,-0.015l0.037,-0.014l0.038,-0.012l8.071,-2.422l0.028,-0.007l0.027,-0.007l0.028,-0.006l0.028,-0.006l0.028,-0.004l0.028,-0.004l0.028,-0.003l0.028,-0.002l0.027,-0.001l0.028,0l0.028,0Zm-7.064,4.156l0,18.158l6,2.4l0,-22.358l-6,1.8Z" style="fill:#f00;"/><path d="M12,8.852c0,-0.359 0.2,-0.689 0.519,-0.855c0.319,-0.166 0.704,-0.141 0.998,0.065c2.022,1.415 5.552,3.886 7.354,5.148c0.258,0.18 0.412,0.475 0.412,0.79c0,0.315 -0.154,0.61 -0.412,0.79c-1.802,1.262 -5.332,3.733 -7.354,5.148c-0.294,0.206 -0.679,0.231 -0.998,0.065c-0.319,-0.166 -0.519,-0.496 -0.519,-0.855c0,-2.681 0,-7.615 0,-10.296Z" style="fill:#f00;"/></svg>