<?xml version="1.0" encoding="UTF-8" standalone="no"?><!DOCTYPE svg PUBLIC "-//W3C//DTD SVG 1.1//EN" "http://www.w3.org/Graphics/SVG/1.1/DTD/svg11.dtd"><svg width="100%" height="100%" viewBox="0 0 28 28" version="1.1" xmlns="http://www.w3.org/2000/svg" xmlns:xlink="http://www.w3.org/1999/xlink" xml:space="preserve" style="fill-rule:evenodd;clip-rule:evenodd;stroke-linejoin:round;stroke-miterlimit:1.41421;"><path d="M0.975,15c-0.259,0 -0.507,-0.103 -0.69,-0.285c-0.182,-0.183 -0.285,-0.431 -0.285,-0.69c0,-2.714 0,-10.336 0,-13.05c0,-0.259 0.103,-0.507 0.285,-0.69c0.183,-0.182 0.431,-0.285 0.69,-0.285c3.639,0 16.411,0 20.05,0c0.259,0 0.507,0.103 0.69,0.285c0.182,0.183 0.285,0.431 0.285,0.69c0,0.017 0,0.033 0,0.05c0,0.259 -0.103,0.507 -0.285,0.69c-0.183,0.182 -0.431,0.285 -0.69,0.285c-3.392,0 -14.658,0 -18.05,0c-0.259,0 -0.507,0.103 -0.69,0.285c-0.182,0.183 -0.285,0.431 -0.285,0.69c0,2.412 0,8.638 0,11.05c0,0.259 -0.103,0.507 -0.285,0.69c-0.183,0.182 -0.431,0.285 -0.69,0.285c-0.017,0 -0.033,0 -0.05,0Z" style="fill:#f00;"/><path d="M28,27.022c0,0.26 -0.103,0.508 -0.286,0.692c-0.184,0.183 -0.432,0.286 -0.692,0.286c-4.106,0 -19.938,0 -24.044,0c-0.54,0 -0.978,-0.438 -0.978,-0.978c0,-2.413 0,-8.631 0,-11.044c0,-0.26 0.103,-0.508 0.286,-0.692c0.184,-0.183 0.432,-0.286 0.692,-0.286c2.253,0 7.791,0 10.044,0c0.26,0 0.508,-0.103 0.692,-0.286c0.183,-0.184 0.286,-0.432 0.286,-0.692c0,-0.879 0,-2.165 0,-3.044c0,-0.54 -0.438,-0.978 -0.978,-0.978c-0.901,0 -2.314,0 -3.757,0c-0.471,0 -0.875,-0.336 -0.961,-0.799c-0.086,-0.463 0.17,-0.922 0.61,-1.091c2.428,-0.934 5.172,-1.989 6.757,-2.599c0.301,-0.116 0.639,-0.076 0.905,0.107c0.265,0.182 0.424,0.483 0.424,0.805c0,2.061 0,5.824 0,7.599c0,0.26 -0.103,0.508 -0.286,0.692c-0.184,0.183 -0.432,0.286 -0.692,0.286c-0.335,0 -0.709,0 -1.044,0c-0.26,0 -0.508,0.103 -0.692,0.286c-0.183,0.184 -0.286,0.432 -0.286,0.692c0,1.115 0,2.929 0,4.044c0,0.54 -0.438,0.978 -0.978,0.978c-1.334,0 -3.71,0 -5.044,0c-0.26,0 -0.508,0.103 -0.692,0.286c-0.183,0.184 -0.286,0.432 -0.286,0.692c0,0.335 0,0.709 0,1.044c0,0.26 0.103,0.508 0.286,0.692c0.184,0.183 0.432,0.286 0.692,0.286c2.413,0 8.631,0 11.044,0c0.26,0 0.508,-0.103 0.692,-0.286c0.183,-0.184 0.286,-0.432 0.286,-0.692c0,-0.335 0,-0.709 0,-1.044c0,-0.26 -0.103,-0.508 -0.286,-0.692c-0.184,-0.183 -0.432,-0.286 -0.692,-0.286c-0.335,0 -0.709,0 -1.044,0c-0.26,0 -0.508,-0.103 -0.692,-0.286c-0.183,-0.184 -0.286,-0.432 -0.286,-0.692c0,-1.115 0,-2.929 0,-4.044c0,-0.54 0.438,-0.978 0.978,-0.978c0.879,0 2.165,0 3.044,0c0.54,0 0.978,-0.438 0.978,-0.978c0,-2.413 0,-8.631 0,-11.044c0,-0.54 0.438,-0.978 0.978,-0.978c1.115,0 2.929,0 4.044,0c0.54,0 0.978,0.438 0.978,0.978c0,4.106 0,19.938 0,24.044Z" style="fill:#f00;"/></svg>