<?xml version="1.0" encoding="UTF-8" standalone="no"?><!DOCTYPE svg PUBLIC "-//W3C//DTD SVG 1.1//EN" "http://www.w3.org/Graphics/SVG/1.1/DTD/svg11.dtd"><svg width="100%" height="100%" viewBox="0 0 26 26" version="1.1" xmlns="http://www.w3.org/2000/svg" xmlns:xlink="http://www.w3.org/1999/xlink" xml:space="preserve" style="fill-rule:evenodd;clip-rule:evenodd;stroke-linejoin:round;stroke-miterlimit:1.41421;"><path d="M11.984,0.015l0.037,0.001l0.037,0.003l0.037,0.004l0.037,0.006l0.037,0.007l0.037,0.008l0.037,0.01l0.036,0.01l0.036,0.013l0.036,0.014l0.035,0.015l0.034,0.016l0.034,0.017l0.033,0.019l0.032,0.019l0.031,0.021l0.03,0.022l0.029,0.023l0.029,0.023l0.027,0.025l0.026,0.026l0.026,0.026l0.024,0.028l0.023,0.028l0.022,0.029l0.021,0.029l0.02,0.031l0.019,0.031l0.018,0.032l0.016,0.032l0.016,0.033l0.014,0.034l0.012,0.034l0.012,0.035l0.01,0.035l0.009,0.035l0.008,0.036l0.006,0.037l0.005,0.036l0.004,0.038l0.002,0.037l0.001,0.038l0,1.511l0.146,0.001l0.147,0.003l0.146,0.004l0.146,0.006l0.146,0.009l0.145,0.009l0.145,0.012l0.145,0.013l0.145,0.015l0.144,0.017l0.144,0.018l0.144,0.021l0.143,0.021l0.143,0.024l0.142,0.025l0.142,0.027l0.142,0.029l0.141,0.03l0.141,0.032l0.14,0.033l0.14,0.036l0.139,0.036l0.139,0.039l0.138,0.04l0.138,0.041l0.137,0.044l0.136,0.044l0.136,0.047l0.136,0.048l0.134,0.049l0.134,0.051l0.134,0.052l0.132,0.055l0.132,0.055l0.132,0.057l0.13,0.059l0.13,0.06l0.13,0.061l0.128,0.063l0.128,0.065l0.126,0.066l0.126,0.067l0.126,0.069l0.124,0.07l0.124,0.072l0.122,0.073l0.122,0.074l0.121,0.076l0.12,0.078l0.119,0.078l0.118,0.08l0.117,0.082l0.117,0.082l0.115,0.085l0.114,0.085l0.113,0.087l0.113,0.088l0.111,0.089l0.11,0.091l0.109,0.092l0.108,0.093l0.107,0.095l0.105,0.095l0.105,0.097l0.103,0.099l0.103,0.099l0.101,0.101l0.1,0.102l0.098,0.103l0.098,0.105l0.096,0.105l0.095,0.107l0.094,0.108l0.092,0.109l0.091,0.111l0.09,0.111l0.088,0.113l0.088,0.113l0.085,0.115l0.085,0.116l0.083,0.117l0.081,0.119l0.081,0.119l0.078,0.12l0.078,0.122l0.075,0.122l0.075,0.124l0.073,0.124l0.071,0.126l0.07,0.127l0.068,0.128l0.067,0.128l0.065,0.13l0.064,0.131l0.062,0.132l0.06,0.132l0.059,0.134l0.057,0.135l0.055,0.135l0.054,0.137l0.052,0.137l0.051,0.139l0.048,0.139l0.047,0.14l0.045,0.141l0.044,0.143l0.041,0.142l0.04,0.144l0.038,0.145l0.036,0.146l0.035,0.146l0.032,0.147l0.031,0.148l0.029,0.149l0.026,0.15l0.025,0.15l0.023,0.152l0.021,0.152l0.02,0.153l0.017,0.153l0.015,0.155l0.013,0.155l0.011,0.156l0.009,0.157l0.007,0.157l0.005,0.158l0.003,0.159l0.001,0.159l-0.002,0.158l-0.003,0.156l-0.005,0.156l-0.008,0.155l-0.009,0.155l-0.011,0.154l-0.014,0.153l-0.015,0.153l-0.017,0.152l-0.019,0.151l-0.021,0.151l-0.023,0.149l-0.025,0.149l-0.027,0.149l-0.028,0.147l-0.031,0.147l-0.032,0.146l-0.034,0.145l-0.036,0.144l-0.038,0.144l-0.039,0.143l-0.041,0.142l-0.043,0.141l-0.045,0.14l-0.046,0.14l-0.049,0.138l-0.049,0.138l-0.052,0.137l-0.053,0.136l-0.055,0.135l-0.056,0.134l-0.058,0.133l-0.06,0.133l-0.061,0.131l-0.063,0.13l-0.064,0.13l-0.066,0.128l-0.068,0.128l-0.069,0.126l-0.071,0.126l-0.072,0.125l-0.073,0.123l-0.075,0.123l-0.077,0.121l-0.077,0.121l-0.08,0.119l-0.08,0.118l-0.083,0.118l-0.083,0.116l-0.085,0.115l-0.086,0.114l-0.088,0.113l-0.089,0.112l-0.09,0.11l-0.092,0.11l-0.092,0.108l-0.095,0.107l-0.095,0.107l-0.097,0.104l-0.097,0.104l-0.099,0.103l-0.101,0.101l-0.101,0.1l-0.103,0.099l-0.104,0.098l-0.105,0.096l-0.106,0.095l-0.107,0.094l-0.108,0.093l-0.11,0.091l-0.11,0.09l-0.112,0.089l-0.112,0.087l-0.114,0.087l-0.115,0.084l-0.116,0.084l-0.116,0.082l-0.118,0.081l-0.119,0.079l-0.119,0.078l-0.121,0.077l-0.121,0.075l-0.123,0.074l-0.123,0.073l-0.124,0.071l-0.125,0.069l-0.126,0.068l-0.127,0.067l-0.127,0.065l-0.129,0.064l-0.129,0.062l-0.13,0.061l-0.131,0.06l-0.131,0.057l-0.133,0.057l-0.133,0.055l-0.133,0.053l-0.135,0.051l-0.135,0.051l-0.136,0.048l-0.136,0.047l-0.137,0.046l-0.138,0.043l-0.139,0.043l-0.139,0.04l-0.139,0.039l-0.14,0.038l-0.141,0.035l-0.141,0.034l-0.142,0.033l-0.142,0.031l-0.143,0.029l-0.144,0.027l-0.144,0.026l-0.144,0.024l-0.145,0.022l-0.145,0.021l-0.145,0.018l-0.146,0.017l-0.147,0.016l-0.147,0.013l-0.147,0.012l-0.148,0.01l-0.147,0.008l-0.149,0.007l-0.148,0.004l-0.149,0.003l-0.149,0.001l-0.142,-0.001l-0.141,-0.003l-0.141,-0.004l-0.14,-0.005l-0.141,-0.008l-0.14,-0.008l-0.139,-0.011l-0.14,-0.012l-0.139,-0.014l-0.139,-0.015l-0.138,-0.016l-0.138,-0.019l-0.137,-0.02l-0.138,-0.021l-0.136,-0.023l-0.137,-0.024l-0.136,-0.026l-0.135,-0.028l-0.135,-0.029l-0.135,-0.03l-0.134,-0.032l-0.133,-0.033l-0.133,-0.035l-0.133,-0.036l-0.132,-0.038l-0.131,-0.039l-0.131,-0.041l-0.13,-0.042l-0.13,-0.044l-0.129,-0.044l-0.129,-0.047l-0.128,-0.047l-0.127,-0.049l-0.127,-0.051l-0.126,-0.052l-0.125,-0.053l-0.125,-0.055l-0.124,-0.055l-0.123,-0.058l-0.123,-0.058l-0.122,-0.06l-0.121,-0.061l-0.12,-0.063l-0.12,-0.064l-0.119,-0.065l-0.118,-0.066l-0.117,-0.068l-0.117,-0.069l-0.115,-0.07l-0.115,-0.072l-0.114,-0.073l-0.113,-0.074l-0.113,-0.075l-0.111,-0.076l-0.11,-0.078l-0.11,-0.079l-0.109,-0.08l-0.108,-0.081l-0.107,-0.083l-0.105,-0.084l-0.105,-0.084l-0.104,-0.087l-0.103,-0.087l-0.102,-0.088l-0.101,-0.089l-0.1,-0.091l-0.099,-0.092l-0.098,-0.093l-0.097,-0.094l-0.096,-0.095l-0.095,-0.096l-0.093,-0.097l-0.093,-0.099l-0.091,-0.099l-0.091,-0.1l-0.089,-0.102l-0.088,-0.103l-0.087,-0.103l-0.085,-0.105l-0.085,-0.106l-0.083,-0.106l-0.082,-0.108l-0.081,-0.109l-0.08,-0.109l-0.078,-0.111l-0.077,-0.112l-0.076,-0.113l-0.075,-0.113l-0.073,-0.115l-0.072,-0.115l-0.071,-0.117l-0.069,-0.117l-0.068,-0.119l-0.067,-0.119l-0.065,-0.12l-0.064,-0.121l-0.062,-0.122l-0.061,-0.123l-0.06,-0.124l-0.058,-0.125l-0.057,-0.125l-0.056,-0.127l-0.054,-0.127l-0.052,-0.128l-0.051,-0.129l-0.05,-0.129l-0.048,-0.131l-0.046,-0.131l-0.045,-0.133l-0.044,-0.132l-0.041,-0.134l-0.041,-0.135l-0.038,-0.135l-0.038,-0.136l-0.035,-0.137l-0.034,-0.138l-0.032,-0.138l-0.031,-0.139l-0.029,-0.14l-0.027,-0.14l-0.026,-0.142l-0.024,-0.141l-0.022,-0.143l-0.021,-0.143l-0.019,-0.144l-0.017,-0.145l-0.015,-0.145l-0.014,-0.146l-0.002,-0.05l0,-0.05l0.002,-0.049l0.006,-0.049l0.007,-0.049l0.011,-0.048l0.013,-0.047l0.015,-0.047l0.018,-0.046l0.02,-0.045l0.022,-0.044l0.025,-0.042l0.027,-0.042l0.029,-0.04l0.031,-0.039l0.034,-0.038l0.035,-0.035l0.038,-0.034l0.038,-0.032l0.041,-0.029l0.041,-0.028l0.043,-0.025l0.045,-0.023l0.045,-0.021l0.046,-0.019l0.047,-0.016l0.048,-0.014l0.049,-0.011l0.05,-0.009l0.05,-0.007l0.05,-0.004l0.051,-0.001l0.432,-0.001l0.469,-0.001l1.018,0.001l1.065,0l1.043,-0.001l0.048,0.001l0.048,0.003l0.047,0.006l0.047,0.007l0.046,0.009l0.045,0.011l0.045,0.014l0.043,0.015l0.043,0.017l0.042,0.018l0.041,0.021l0.039,0.022l0.039,0.024l0.038,0.025l0.036,0.027l0.035,0.029l0.034,0.03l0.032,0.031l0.031,0.033l0.029,0.034l0.028,0.035l0.027,0.037l0.024,0.038l0.023,0.039l0.022,0.04l0.019,0.042l0.018,0.042l0.016,0.043l0.013,0.044l0.012,0.045l0.01,0.046l0.008,0.047l0.02,0.127l0.023,0.127l0.026,0.126l0.028,0.125l0.031,0.124l0.034,0.123l0.037,0.123l0.039,0.121l0.042,0.12l0.045,0.12l0.047,0.118l0.049,0.118l0.052,0.116l0.055,0.114l0.057,0.114l0.06,0.113l0.062,0.111l0.064,0.109l0.067,0.108l0.069,0.107l0.072,0.106l0.074,0.103l0.076,0.103l0.078,0.1l0.081,0.099l0.083,0.097l0.085,0.096l0.087,0.094l0.089,0.092l0.092,0.09l0.093,0.088l0.096,0.086l0.098,0.084l0.099,0.082l0.102,0.08l0.104,0.078l0.105,0.076l0.108,0.073l0.11,0.072l0.111,0.069l0.113,0.067l0.115,0.064l0.117,0.062l0.059,0.03l0.06,0.029l0.06,0.029l0.06,0.028l0.061,0.028l0.061,0.027l0.062,0.026l0.062,0.026l0.063,0.025l0.063,0.024l0.063,0.024l0.064,0.022l0.064,0.023l0.065,0.021l0.065,0.021l0.065,0.021l0.066,0.019l0.066,0.019l0.067,0.018l0.067,0.017l0.067,0.017l0.068,0.016l0.068,0.015l0.069,0.015l0.069,0.014l0.069,0.013l0.07,0.012l0.07,0.011l0.07,0.011l0.071,0.01l0.071,0.009l0.071,0.009l0.072,0.008l0.072,0.006l0.073,0.006l0.073,0.006l0.073,0.004l0.073,0.004l0.074,0.003l0.074,0.002l0.075,0.001l0.075,0.001l0.085,-0.001l0.085,-0.002l0.085,-0.002l0.084,-0.004l0.084,-0.005l0.083,-0.006l0.082,-0.007l0.082,-0.008l0.082,-0.009l0.081,-0.01l0.081,-0.011l0.08,-0.012l0.079,-0.013l0.079,-0.014l0.079,-0.015l0.077,-0.016l0.078,-0.017l0.077,-0.018l0.076,-0.018l0.076,-0.02l0.075,-0.021l0.075,-0.021l0.074,-0.023l0.074,-0.023l0.073,-0.024l0.072,-0.025l0.072,-0.026l0.072,-0.027l0.07,-0.028l0.071,-0.028l0.069,-0.029l0.069,-0.031l0.069,-0.031l0.068,-0.031l0.067,-0.033l0.067,-0.033l0.066,-0.034l0.066,-0.035l0.065,-0.036l0.064,-0.036l0.064,-0.037l0.063,-0.038l0.063,-0.039l0.062,-0.039l0.061,-0.04l0.061,-0.041l0.06,-0.041l0.06,-0.042l0.059,-0.043l0.058,-0.043l0.058,-0.044l0.057,-0.045l0.056,-0.045l0.056,-0.046l0.055,-0.047l0.054,-0.047l0.054,-0.048l0.053,-0.048l0.053,-0.049l0.052,-0.05l0.051,-0.05l0.05,-0.05l0.05,-0.052l0.049,-0.051l0.049,-0.052l0.048,-0.053l0.047,-0.053l0.046,-0.054l0.046,-0.054l0.045,-0.055l0.045,-0.055l0.044,-0.056l0.043,-0.056l0.042,-0.057l0.042,-0.057l0.041,-0.057l0.04,-0.058l0.039,-0.058l0.039,-0.059l0.038,-0.059l0.038,-0.06l0.037,-0.059l0.035,-0.061l0.036,-0.06l0.034,-0.061l0.034,-0.061l0.033,-0.062l0.032,-0.062l0.032,-0.062l0.031,-0.062l0.03,-0.063l0.029,-0.063l0.029,-0.064l0.028,-0.063l0.027,-0.064l0.026,-0.064l0.026,-0.065l0.024,-0.064l0.024,-0.065l0.024,-0.065l0.022,-0.065l0.022,-0.066l0.021,-0.066l0.02,-0.065l0.019,-0.066l0.019,-0.067l0.017,-0.066l0.017,-0.066l0.016,-0.067l0.016,-0.067l0.014,-0.066l0.014,-0.067l0.013,-0.067l0.012,-0.067l0.011,-0.068l0.011,-0.067l0.01,-0.067l0.008,-0.068l0.008,-0.067l0.008,-0.068l0.006,-0.067l0.005,-0.068l0.005,-0.067l0.004,-0.068l0.003,-0.067l0.002,-0.068l0.001,-0.067l0.001,-0.068l-0.001,-0.082l-0.001,-0.082l-0.003,-0.082l-0.004,-0.081l-0.005,-0.081l-0.006,-0.08l-0.007,-0.08l-0.007,-0.079l-0.009,-0.079l-0.01,-0.079l-0.011,-0.078l-0.012,-0.077l-0.013,-0.077l-0.014,-0.077l-0.015,-0.076l-0.016,-0.075l-0.017,-0.076l-0.018,-0.074l-0.019,-0.074l-0.019,-0.074l-0.021,-0.073l-0.021,-0.073l-0.023,-0.072l-0.023,-0.071l-0.024,-0.072l-0.025,-0.07l-0.026,-0.07l-0.027,-0.07l-0.028,-0.069l-0.028,-0.068l-0.03,-0.068l-0.03,-0.068l-0.031,-0.066l-0.032,-0.067l-0.032,-0.065l-0.034,-0.066l-0.034,-0.064l-0.035,-0.064l-0.036,-0.064l-0.036,-0.063l-0.038,-0.062l-0.038,-0.062l-0.039,-0.062l-0.039,-0.06l-0.04,-0.06l-0.041,-0.06l-0.042,-0.059l-0.042,-0.058l-0.043,-0.058l-0.044,-0.057l-0.044,-0.057l-0.045,-0.056l-0.046,-0.055l-0.046,-0.055l-0.047,-0.054l-0.048,-0.053l-0.048,-0.053l-0.049,-0.053l-0.05,-0.051l-0.05,-0.051l-0.05,-0.051l-0.051,-0.049l-0.052,-0.05l-0.053,-0.048l-0.052,-0.048l-0.054,-0.047l-0.054,-0.047l-0.054,-0.045l-0.055,-0.046l-0.056,-0.044l-0.056,-0.044l-0.056,-0.043l-0.057,-0.043l-0.058,-0.042l-0.058,-0.041l-0.058,-0.04l-0.059,-0.04l-0.059,-0.039l-0.06,-0.039l-0.06,-0.037l-0.061,-0.037l-0.061,-0.037l-0.061,-0.035l-0.062,-0.035l-0.062,-0.034l-0.063,-0.034l-0.063,-0.033l-0.063,-0.032l-0.064,-0.031l-0.064,-0.031l-0.064,-0.029l-0.065,-0.03l-0.065,-0.028l-0.065,-0.028l-0.066,-0.026l-0.065,-0.027l-0.067,-0.025l-0.066,-0.025l-0.067,-0.024l-0.067,-0.023l-0.067,-0.022l-0.067,-0.022l-0.068,-0.02l-0.068,-0.02l-0.068,-0.02l-0.068,-0.018l-0.069,-0.018l-0.069,-0.017l-0.068,-0.016l-0.07,-0.015l-0.069,-0.015l-0.069,-0.013l-0.07,-0.013l-0.069,-0.012l-0.07,-0.012l-0.07,-0.01l-0.07,-0.01l-0.07,-0.008l-0.071,-0.008l-0.07,-0.008l-0.071,-0.006l-0.07,-0.005l-0.071,-0.005l-0.07,-0.004l-0.071,-0.003l-0.071,-0.002l-0.07,-0.001l-0.071,-0.001l-0.004,0.138l-0.003,0.156l-0.003,0.174l-0.002,0.188l-0.002,0.411l-0.001,0.441l-0.001,0.038l-0.003,0.037l-0.004,0.037l-0.005,0.036l-0.006,0.036l-0.008,0.036l-0.01,0.035l-0.01,0.035l-0.012,0.035l-0.013,0.034l-0.015,0.033l-0.015,0.033l-0.017,0.032l-0.018,0.031l-0.019,0.031l-0.02,0.03l-0.021,0.03l-0.022,0.028l-0.024,0.028l-0.024,0.027l-0.025,0.026l-0.027,0.026l-0.027,0.024l-0.029,0.024l-0.029,0.022l-0.03,0.021l-0.031,0.021l-0.032,0.019l-0.033,0.019l-0.033,0.017l-0.035,0.016l-0.035,0.014l-0.035,0.014l-0.036,0.012l-0.037,0.011l-0.036,0.009l-0.037,0.008l-0.037,0.007l-0.036,0.005l-0.037,0.004l-0.037,0.003l-0.037,0.001l-0.037,0l-0.037,-0.001l-0.037,-0.003l-0.036,-0.004l-0.037,-0.005l-0.036,-0.006l-0.036,-0.008l-0.036,-0.009l-0.035,-0.01l-0.035,-0.012l-0.034,-0.013l-0.034,-0.014l-0.034,-0.015l-0.033,-0.017l-0.032,-0.017l-0.032,-0.019l-0.032,-0.02l-0.03,-0.021l-0.03,-0.023l-0.029,-0.024l-0.029,-0.024l-0.027,-0.026l-4.53,-4.434l-0.036,-0.037l-0.034,-0.039l-0.031,-0.04l-0.029,-0.04l-0.027,-0.042l-0.025,-0.043l-0.022,-0.044l-0.019,-0.045l-0.018,-0.045l-0.015,-0.046l-0.013,-0.046l-0.01,-0.047l-0.008,-0.047l-0.006,-0.048l-0.004,-0.048l-0.001,-0.047l0.001,-0.048l0.004,-0.048l0.006,-0.047l0.008,-0.048l0.01,-0.046l0.013,-0.047l0.015,-0.046l0.018,-0.045l0.019,-0.045l0.022,-0.043l0.025,-0.043l0.027,-0.042l0.029,-0.041l0.031,-0.04l0.034,-0.038l0.036,-0.037l4.544,-4.449l0.028,-0.026l0.028,-0.025l0.03,-0.023l0.03,-0.023l0.031,-0.021l0.031,-0.02l0.032,-0.019l0.033,-0.018l0.033,-0.017l0.034,-0.015l0.034,-0.014l0.035,-0.013l0.035,-0.011l0.035,-0.01l0.036,-0.009l0.036,-0.008l0.036,-0.006l0.037,-0.006l0.037,-0.003l0.037,-0.003l0.037,-0.001l0.037,0Zm-3.146,5.444l2.273,2.224l0.011,-0.03l0.056,-0.129l0.066,-0.124l0.074,-0.12l0.083,-0.114l0.09,-0.108l0.098,-0.101l0.105,-0.094l0.11,-0.087l0.117,-0.078l0.122,-0.07l0.127,-0.062l0.131,-0.052l0.134,-0.043l0.136,-0.034l0.139,-0.024l0.14,-0.014l0.141,-0.004l0.082,0.001l0.095,0.001l0.095,0.003l0.095,0.004l0.094,0.005l0.095,0.007l0.094,0.007l0.094,0.008l0.094,0.01l0.093,0.011l0.094,0.011l0.093,0.013l0.093,0.014l0.093,0.015l0.093,0.016l0.092,0.017l0.092,0.019l0.092,0.019l0.091,0.02l0.092,0.021l0.091,0.023l0.09,0.023l0.091,0.025l0.09,0.025l0.09,0.027l0.089,0.027l0.089,0.029l0.089,0.029l0.089,0.031l0.088,0.031l0.087,0.033l0.088,0.033l0.087,0.035l0.086,0.035l0.086,0.037l0.086,0.037l0.086,0.039l0.084,0.039l0.085,0.04l0.084,0.042l0.084,0.042l0.083,0.043l0.082,0.045l0.083,0.045l0.081,0.046l0.081,0.047l0.081,0.048l0.08,0.049l0.08,0.05l0.079,0.051l0.079,0.052l0.078,0.052l0.077,0.054l0.077,0.055l0.076,0.055l0.076,0.057l0.075,0.057l0.074,0.058l0.074,0.06l0.073,0.06l0.073,0.061l0.072,0.062l0.071,0.063l0.071,0.063l0.07,0.065l0.069,0.066l0.068,0.066l0.068,0.068l0.067,0.068l0.066,0.069l0.065,0.07l0.065,0.071l0.064,0.072l0.063,0.073l0.062,0.073l0.062,0.075l0.06,0.075l0.06,0.076l0.059,0.077l0.058,0.078l0.057,0.079l0.057,0.079l0.055,0.081l0.054,0.081l0.054,0.082l0.052,0.083l0.052,0.084l0.05,0.084l0.05,0.086l0.048,0.086l0.047,0.087l0.047,0.087l0.045,0.089l0.045,0.089l0.043,0.09l0.042,0.091l0.041,0.091l0.04,0.092l0.038,0.093l0.038,0.094l0.036,0.094l0.036,0.095l0.034,0.096l0.032,0.097l0.032,0.097l0.03,0.097l0.03,0.099l0.027,0.099l0.027,0.099l0.025,0.101l0.024,0.1l0.023,0.102l0.022,0.102l0.02,0.102l0.019,0.103l0.017,0.104l0.016,0.104l0.015,0.105l0.013,0.105l0.012,0.105l0.011,0.106l0.009,0.107l0.008,0.107l0.006,0.107l0.005,0.108l0.004,0.108l0.002,0.108l0.001,0.109l-0.001,0.093l-0.002,0.093l-0.003,0.093l-0.004,0.092l-0.005,0.092l-0.006,0.093l-0.008,0.092l-0.008,0.092l-0.01,0.092l-0.011,0.091l-0.012,0.092l-0.013,0.091l-0.014,0.091l-0.016,0.091l-0.016,0.091l-0.017,0.09l-0.019,0.09l-0.02,0.09l-0.02,0.09l-0.022,0.09l-0.023,0.089l-0.023,0.089l-0.025,0.089l-0.026,0.088l-0.027,0.088l-0.028,0.088l-0.029,0.087l-0.03,0.088l-0.031,0.086l-0.032,0.087l-0.033,0.086l-0.034,0.086l-0.035,0.085l-0.036,0.086l-0.037,0.084l-0.038,0.085l-0.039,0.083l-0.04,0.084l-0.041,0.083l-0.042,0.083l-0.043,0.082l-0.044,0.082l-0.045,0.081l-0.046,0.081l-0.047,0.08l-0.048,0.08l-0.048,0.08l-0.05,0.079l-0.051,0.078l-0.051,0.078l-0.053,0.078l-0.053,0.077l-0.055,0.076l-0.055,0.076l-0.056,0.075l-0.058,0.075l-0.058,0.074l-0.059,0.073l-0.06,0.073l-0.061,0.072l-0.062,0.072l-0.063,0.071l-0.064,0.07l-0.065,0.07l-0.065,0.069l-0.067,0.068l-0.067,0.068l-0.069,0.067l-0.069,0.066l-0.07,0.065l-0.071,0.065l-0.072,0.064l-0.073,0.063l-0.074,0.062l-0.074,0.062l-0.076,0.06l-0.076,0.06l-0.078,0.059l-0.078,0.059l-0.079,0.057l-0.08,0.056l-0.081,0.056l-0.081,0.055l-0.083,0.053l-0.083,0.053l-0.084,0.052l-0.085,0.051l-0.086,0.05l-0.086,0.049l-0.088,0.048l-0.088,0.047l-0.089,0.046l-0.09,0.044l-0.091,0.044l-0.091,0.043l-0.092,0.041l-0.093,0.041l-0.094,0.039l-0.094,0.039l-0.095,0.037l-0.096,0.036l-0.097,0.035l-0.097,0.033l-0.098,0.033l-0.098,0.031l-0.1,0.03l-0.1,0.029l-0.1,0.027l-0.102,0.027l-0.101,0.025l-0.103,0.024l-0.103,0.022l-0.104,0.021l-0.104,0.02l-0.105,0.019l-0.105,0.017l-0.106,0.016l-0.107,0.014l-0.107,0.014l-0.107,0.012l-0.108,0.01l-0.109,0.009l-0.109,0.008l-0.109,0.006l-0.11,0.005l-0.11,0.004l-0.111,0.002l-0.11,0.001l-0.098,-0.001l-0.097,-0.002l-0.097,-0.002l-0.096,-0.004l-0.096,-0.005l-0.095,-0.006l-0.096,-0.007l-0.094,-0.008l-0.095,-0.009l-0.094,-0.01l-0.094,-0.011l-0.094,-0.012l-0.093,-0.013l-0.093,-0.014l-0.092,-0.016l-0.092,-0.016l-0.092,-0.017l-0.091,-0.018l-0.091,-0.019l-0.09,-0.021l-0.09,-0.021l-0.09,-0.022l-0.089,-0.023l-0.089,-0.024l-0.088,-0.025l-0.087,-0.026l-0.088,-0.027l-0.086,-0.028l-0.087,-0.029l-0.085,-0.03l-0.086,-0.03l-0.084,-0.032l-0.085,-0.033l-0.083,-0.033l-0.084,-0.034l-0.082,-0.035l-0.082,-0.036l-0.082,-0.037l-0.081,-0.038l-0.08,-0.039l-0.08,-0.039l-0.084,-0.043l-0.152,-0.081l-0.155,-0.086l-0.152,-0.089l-0.149,-0.093l-0.147,-0.096l-0.145,-0.099l-0.142,-0.102l-0.139,-0.104l-0.137,-0.108l-0.134,-0.11l-0.131,-0.113l-0.129,-0.116l-0.125,-0.118l-0.123,-0.121l-0.12,-0.124l-0.117,-0.126l-0.115,-0.128l-0.111,-0.13l-0.108,-0.133l-0.105,-0.135l-0.102,-0.137l-0.1,-0.14l-0.096,-0.141l-0.092,-0.144l-0.09,-0.145l-0.087,-0.147l-0.083,-0.149l-0.08,-0.151l-0.077,-0.153l-0.073,-0.154l-0.07,-0.156l-0.067,-0.157l-0.063,-0.159l-0.06,-0.161l-0.056,-0.162l-0.053,-0.163l-0.049,-0.165l-0.046,-0.166l-0.003,-0.012l-0.261,0l-1.067,0l-0.733,-0.001l0.01,0.046l0.025,0.114l0.027,0.115l0.028,0.113l0.029,0.113l0.031,0.113l0.032,0.111l0.033,0.111l0.034,0.11l0.036,0.11l0.037,0.109l0.039,0.108l0.039,0.108l0.041,0.107l0.042,0.106l0.043,0.106l0.045,0.104l0.045,0.105l0.047,0.103l0.048,0.103l0.05,0.102l0.05,0.101l0.052,0.101l0.052,0.1l0.054,0.099l0.055,0.098l0.056,0.098l0.058,0.097l0.058,0.096l0.059,0.096l0.061,0.094l0.062,0.094l0.062,0.093l0.064,0.093l0.065,0.091l0.066,0.091l0.067,0.09l0.068,0.089l0.069,0.089l0.07,0.087l0.071,0.087l0.072,0.086l0.073,0.085l0.074,0.084l0.075,0.084l0.076,0.082l0.076,0.082l0.078,0.081l0.079,0.08l0.08,0.079l0.08,0.078l0.082,0.077l0.082,0.076l0.083,0.076l0.084,0.074l0.085,0.074l0.086,0.073l0.087,0.071l0.087,0.071l0.088,0.07l0.09,0.069l0.09,0.067l0.09,0.067l0.092,0.066l0.092,0.065l0.093,0.064l0.094,0.063l0.094,0.061l0.096,0.061l0.096,0.06l0.096,0.059l0.098,0.057l0.098,0.057l0.098,0.055l0.1,0.055l0.1,0.053l0.1,0.053l0.102,0.051l0.102,0.05l0.102,0.049l0.103,0.048l0.104,0.047l0.104,0.045l0.105,0.045l0.106,0.043l0.106,0.042l0.106,0.041l0.107,0.04l0.108,0.039l0.108,0.038l0.109,0.036l0.109,0.035l0.109,0.034l0.11,0.033l0.111,0.032l0.11,0.03l0.112,0.029l0.111,0.028l0.113,0.027l0.112,0.025l0.113,0.024l0.113,0.023l0.114,0.022l0.114,0.02l0.114,0.02l0.115,0.018l0.115,0.016l0.116,0.015l0.115,0.014l0.116,0.013l0.117,0.012l0.116,0.01l0.117,0.008l0.117,0.008l0.118,0.006l0.117,0.005l0.118,0.003l0.118,0.002l0.118,0.001l0.125,-0.001l0.125,-0.002l0.124,-0.004l0.123,-0.005l0.124,-0.007l0.123,-0.009l0.123,-0.009l0.122,-0.012l0.123,-0.013l0.122,-0.014l0.121,-0.015l0.121,-0.018l0.121,-0.018l0.121,-0.02l0.12,-0.022l0.12,-0.023l0.119,-0.024l0.119,-0.026l0.118,-0.027l0.118,-0.028l0.118,-0.03l0.117,-0.031l0.117,-0.033l0.116,-0.034l0.116,-0.035l0.115,-0.037l0.115,-0.038l0.114,-0.039l0.113,-0.041l0.113,-0.041l0.113,-0.044l0.112,-0.044l0.111,-0.046l0.111,-0.047l0.11,-0.049l0.109,-0.049l0.109,-0.051l0.108,-0.052l0.107,-0.054l0.107,-0.054l0.106,-0.056l0.105,-0.057l0.105,-0.058l0.104,-0.06l0.103,-0.06l0.102,-0.062l0.102,-0.063l0.101,-0.064l0.1,-0.065l0.099,-0.067l0.098,-0.067l0.098,-0.069l0.096,-0.07l0.096,-0.07l0.095,-0.072l0.094,-0.073l0.093,-0.075l0.093,-0.075l0.091,-0.076l0.09,-0.077l0.09,-0.079l0.088,-0.079l0.088,-0.08l0.086,-0.082l0.086,-0.082l0.084,-0.083l0.084,-0.085l0.082,-0.085l0.082,-0.086l0.08,-0.088l0.079,-0.088l0.078,-0.089l0.078,-0.09l0.076,-0.091l0.075,-0.092l0.073,-0.093l0.073,-0.093l0.072,-0.095l0.07,-0.095l0.069,-0.097l0.068,-0.097l0.067,-0.098l0.066,-0.099l0.064,-0.099l0.064,-0.101l0.062,-0.101l0.06,-0.103l0.06,-0.102l0.058,-0.104l0.057,-0.105l0.056,-0.105l0.054,-0.106l0.054,-0.107l0.052,-0.108l0.05,-0.108l0.049,-0.109l0.048,-0.11l0.047,-0.111l0.045,-0.111l0.044,-0.112l0.042,-0.113l0.041,-0.114l0.04,-0.114l0.038,-0.115l0.037,-0.116l0.035,-0.116l0.034,-0.117l0.033,-0.118l0.031,-0.118l0.03,-0.12l0.028,-0.119l0.026,-0.121l0.026,-0.121l0.023,-0.122l0.022,-0.123l0.021,-0.123l0.019,-0.124l0.017,-0.124l0.016,-0.125l0.014,-0.126l0.013,-0.127l0.011,-0.127l0.009,-0.128l0.008,-0.128l0.006,-0.13l0.005,-0.129l0.003,-0.131l0.001,-0.131l-0.001,-0.133l-0.002,-0.132l-0.004,-0.132l-0.006,-0.131l-0.008,-0.13l-0.009,-0.13l-0.011,-0.128l-0.013,-0.128l-0.014,-0.128l-0.016,-0.126l-0.017,-0.126l-0.019,-0.125l-0.021,-0.124l-0.022,-0.124l-0.023,-0.123l-0.026,-0.122l-0.026,-0.121l-0.029,-0.121l-0.03,-0.119l-0.031,-0.12l-0.033,-0.118l-0.034,-0.118l-0.036,-0.116l-0.037,-0.117l-0.038,-0.115l-0.04,-0.115l-0.042,-0.114l-0.043,-0.113l-0.044,-0.112l-0.046,-0.112l-0.046,-0.11l-0.049,-0.11l-0.05,-0.11l-0.051,-0.108l-0.052,-0.108l-0.054,-0.107l-0.055,-0.106l-0.056,-0.105l-0.057,-0.104l-0.059,-0.104l-0.06,-0.103l-0.062,-0.102l-0.062,-0.101l-0.064,-0.1l-0.065,-0.1l-0.067,-0.098l-0.067,-0.098l-0.069,-0.097l-0.07,-0.096l-0.071,-0.095l-0.072,-0.094l-0.073,-0.094l-0.075,-0.092l-0.075,-0.092l-0.077,-0.09l-0.078,-0.09l-0.079,-0.089l-0.08,-0.087l-0.081,-0.087l-0.082,-0.086l-0.083,-0.085l-0.084,-0.084l-0.085,-0.083l-0.086,-0.082l-0.087,-0.081l-0.089,-0.079l-0.089,-0.079l-0.09,-0.078l-0.091,-0.077l-0.092,-0.076l-0.093,-0.074l-0.093,-0.074l-0.095,-0.072l-0.095,-0.072l-0.097,-0.07l-0.097,-0.069l-0.098,-0.068l-0.099,-0.067l-0.1,-0.066l-0.1,-0.065l-0.101,-0.063l-0.102,-0.063l-0.103,-0.061l-0.104,-0.06l-0.104,-0.059l-0.105,-0.058l-0.105,-0.056l-0.107,-0.055l-0.107,-0.054l-0.107,-0.053l-0.108,-0.052l-0.109,-0.05l-0.11,-0.049l-0.11,-0.048l-0.111,-0.047l-0.111,-0.045l-0.112,-0.044l-0.112,-0.043l-0.113,-0.041l-0.113,-0.04l-0.114,-0.039l-0.114,-0.037l-0.115,-0.036l-0.115,-0.035l-0.116,-0.034l-0.116,-0.032l-0.116,-0.031l-0.117,-0.029l-0.118,-0.028l-0.117,-0.027l-0.118,-0.025l-0.119,-0.024l-0.118,-0.022l-0.119,-0.022l-0.12,-0.019l-0.119,-0.019l-0.12,-0.016l-0.12,-0.016l-0.121,-0.014l-0.12,-0.012l-0.121,-0.011l-0.121,-0.01l-0.122,-0.008l-0.121,-0.007l-0.122,-0.005l-0.121,-0.004l-0.122,-0.002l-0.135,-0.001l-0.142,-0.006l-0.141,-0.016l-0.14,-0.026l-0.138,-0.036l-0.134,-0.045l-0.131,-0.055l-0.127,-0.065l-0.122,-0.073l-0.117,-0.081l-0.11,-0.09l-0.104,-0.097l-0.096,-0.105l-0.089,-0.11l-0.081,-0.117l-0.073,-0.123l-0.063,-0.127l-0.048,-0.116l-2.272,2.225Z" style="fill:#f00;"/></svg>