<?xml version="1.0" encoding="UTF-8" standalone="no"?><!DOCTYPE svg PUBLIC "-//W3C//DTD SVG 1.1//EN" "http://www.w3.org/Graphics/SVG/1.1/DTD/svg11.dtd"><svg width="100%" height="100%" viewBox="0 0 32 28" version="1.1" xmlns="http://www.w3.org/2000/svg" xmlns:xlink="http://www.w3.org/1999/xlink" xml:space="preserve" style="fill-rule:evenodd;clip-rule:evenodd;stroke-linejoin:round;stroke-miterlimit:1.41421;"><path d="M1.019,0.568l0.031,0.001l0.031,0.003l0.031,0.003l0.03,0.004l0.031,0.006l0.03,0.006l0.03,0.007l0.03,0.008l0.03,0.009l0.03,0.01l0.03,0.011l0.029,0.012l0.029,0.013l26.563,12.452l0.039,0.019l0.038,0.021l0.036,0.022l0.036,0.024l0.034,0.025l0.032,0.026l0.032,0.027l0.03,0.029l0.029,0.03l0.028,0.031l0.026,0.032l0.024,0.033l0.024,0.034l0.022,0.035l0.02,0.036l0.019,0.036l0.017,0.037l0.016,0.038l0.014,0.039l0.013,0.039l0.011,0.04l0.009,0.04l0.008,0.041l0.006,0.041l0.004,0.041l0.003,0.042l0.001,0.042l-0.002,0.042l-0.002,0.043l-0.005,0.042l-0.007,0.043l-0.008,0.042l-0.011,0.042l-0.012,0.041l-0.013,0.041l-0.016,0.039l-0.017,0.039l-0.018,0.038l-0.02,0.036l-0.022,0.036l-0.022,0.035l-0.025,0.033l-0.025,0.033l-0.027,0.031l-0.028,0.03l-0.029,0.029l-0.031,0.028l-0.031,0.026l-0.033,0.025l-0.034,0.024l-0.034,0.022l-0.036,0.021l-0.036,0.02l-0.037,0.017l-0.038,0.017l-0.039,0.015l-0.04,0.013l-0.04,0.011l-0.041,0.01l-0.041,0.008l-0.042,0.007l-0.043,0.004l-0.043,0.003l-0.043,0.001l-26.564,0l-0.051,-0.001l-0.05,-0.004l-0.05,-0.006l-0.048,-0.009l-0.048,-0.011l-0.047,-0.014l-0.046,-0.015l-0.045,-0.018l-0.044,-0.02l-0.043,-0.022l-0.041,-0.023l-0.04,-0.026l-0.039,-0.028l-0.038,-0.029l-0.036,-0.031l-0.034,-0.033l-0.033,-0.034l-0.031,-0.036l-0.029,-0.038l-0.028,-0.039l-0.026,-0.04l-0.023,-0.041l-0.022,-0.043l-0.02,-0.044l-0.018,-0.045l-0.015,-0.046l-0.014,-0.047l-0.011,-0.048l-0.009,-0.048l-0.006,-0.05l-0.004,-0.05l-0.001,-0.051l0,-12.452l0.001,-0.032l0.001,-0.031l0.003,-0.032l0.003,-0.031l0.004,-0.031l0.006,-0.03l0.006,-0.031l0.008,-0.03l0.008,-0.03l0.009,-0.029l0.01,-0.03l0.011,-0.028l0.012,-0.029l0.012,-0.028l0.014,-0.028l0.014,-0.027l0.016,-0.027l0.016,-0.026l0.016,-0.026l0.018,-0.025l0.019,-0.025l0.019,-0.024l0.02,-0.023l0.021,-0.023l0.021,-0.023l0.023,-0.021l0.023,-0.021l0.023,-0.021l0.025,-0.019l0.025,-0.019l0.026,-0.018l0.026,-0.018l0.027,-0.016l0.027,-0.016l0.028,-0.015l0.028,-0.014l0.029,-0.012l0.029,-0.012l0.029,-0.011l0.029,-0.01l0.03,-0.009l0.03,-0.008l0.03,-0.008l0.03,-0.006l0.03,-0.005l0.031,-0.005l0.03,-0.003l0.031,-0.002l0.031,-0.002l0.031,0l0.03,0Zm0.981,12.432l21.021,0l-21.021,-9.854l0,9.854Z" style="fill:#f00;"/><path d="M0.99,17c-0.547,0 -0.99,0.443 -0.99,0.99c0,1.967 0,6.369 0,8.622c0,0.32 0.155,0.621 0.415,0.806c0.26,0.186 0.595,0.235 0.897,0.131c4.192,-1.441 17.432,-5.992 25.083,-8.622c0.457,-0.157 0.734,-0.623 0.655,-1.1c-0.08,-0.477 -0.493,-0.827 -0.977,-0.827c-7.907,0 -21.345,0 -25.083,0Z" style="fill:#f00;"/></svg>