<?xml version="1.0" encoding="UTF-8" standalone="no"?><!DOCTYPE svg PUBLIC "-//W3C//DTD SVG 1.1//EN" "http://www.w3.org/Graphics/SVG/1.1/DTD/svg11.dtd"><svg width="100%" height="100%" viewBox="0 0 20 18" version="1.1" xmlns="http://www.w3.org/2000/svg" xmlns:xlink="http://www.w3.org/1999/xlink" xml:space="preserve" style="fill-rule:evenodd;clip-rule:evenodd;stroke-linejoin:round;stroke-miterlimit:1.41421;"><path d="M10.814,16.86c-0.188,0.263 -0.491,0.419 -0.814,0.419c-0.323,0 -0.626,-0.156 -0.814,-0.419c-1.78,-2.491 -6.019,-8.427 -8.056,-11.278c-0.218,-0.305 -0.247,-0.706 -0.075,-1.039c0.171,-0.334 0.514,-0.543 0.889,-0.543c3.825,0 12.287,0 16.112,0c0.375,0 0.718,0.209 0.889,0.543c0.172,0.333 0.143,0.734 -0.075,1.039c-2.037,2.851 -6.276,8.787 -8.056,11.278Z" style="fill:#f00;"/><path d="M1,2.044c0,0.528 0.428,0.956 0.955,0.956c3.118,0 12.972,0 16.09,0c0.527,0 0.955,-0.428 0.955,-0.956c0,-0.347 0,-0.741 0,-1.088c0,-0.528 -0.428,-0.956 -0.955,-0.956c-3.118,0 -12.972,0 -16.09,0c-0.527,0 -0.955,0.428 -0.955,0.956c0,0.347 0,0.741 0,1.088Z" style="fill:#f00;"/></svg>