<?xml version="1.0" encoding="UTF-8" standalone="no"?>
<!DOCTYPE svg PUBLIC "-//W3C//DTD SVG 1.1//EN" "http://www.w3.org/Graphics/SVG/1.1/DTD/svg11.dtd">
<svg width="100%" height="100%" viewBox="0 0 16 16" version="1.1" xmlns="http://www.w3.org/2000/svg" xmlns:xlink="http://www.w3.org/1999/xlink" xml:space="preserve" style="fill-rule:evenodd;clip-rule:evenodd;stroke-linejoin:round;stroke-miterlimit:1.41421;">
    <path d="M6.586,8L3.05,4.464C2.66,4.074 2.66,3.441 3.05,3.05C3.441,2.66 4.074,2.66 4.464,3.05L8,6.586L11.536,3.05C11.926,2.66 12.559,2.66 12.95,3.05C13.34,3.441 13.34,4.074 12.95,4.464L9.414,8L12.95,11.536C13.34,11.926 13.34,12.559 12.95,12.95C12.559,13.34 11.926,13.34 11.536,12.95L8,9.414L4.464,12.95C4.074,13.34 3.441,13.34 3.05,12.95C2.66,12.559 2.66,11.926 3.05,11.536L6.586,8Z"/>
</svg>
