<?xml version="1.0" encoding="UTF-8" standalone="no"?>
<!DOCTYPE svg PUBLIC "-//W3C//DTD SVG 1.1//EN" "http://www.w3.org/Graphics/SVG/1.1/DTD/svg11.dtd">
<svg width="100%" height="100%" viewBox="0 0 10 20" version="1.1" xmlns="http://www.w3.org/2000/svg" xmlns:xlink="http://www.w3.org/1999/xlink" xml:space="preserve" style="fill-rule:evenodd;clip-rule:evenodd;stroke-linejoin:round;stroke-miterlimit:1.41421;">
    <path id="Bg" d="M8,17L8,19L6,19L6,17L8,17ZM2,17L4,17L4,15L6,15L6,17L4,17L4,19L2,19L2,17ZM2,13L4,13L4,15L2,15L2,13ZM6,13L8,13L8,15L6,15L6,13ZM4,11L6,11L6,13L4,13L4,11ZM6,9L8,9L8,11L6,11L6,9ZM2,9L4,9L4,11L2,11L2,9ZM4,7L6,7L6,9L4,9L4,7ZM2,5L4,5L4,7L2,7L2,5ZM6,5L8,5L8,7L6,7L6,5ZM4,3L6,3L6,5L4,5L4,3ZM2,1L4,1L4,3L2,3L2,1ZM6,1L8,1L8,3L6,3L6,1Z"/>
    <path id="Fg" d="M2,17L3,17L3,18L2,18L2,17ZM6,17L7,17L7,18L6,18L6,17ZM4,15L5,15L5,16L4,16L4,15ZM2,13L3,13L3,14L2,14L2,13ZM6,13L7,13L7,14L6,14L6,13ZM4,11L5,11L5,12L4,12L4,11ZM6,9L7,9L7,10L6,10L6,9ZM2,9L3,9L3,10L2,10L2,9ZM4,7L5,7L5,8L4,8L4,7ZM2,5L3,5L3,6L2,6L2,5ZM6,5L7,5L7,6L6,6L6,5ZM4,3L5,3L5,4L4,4L4,3ZM6,1L7,1L7,2L6,2L6,1ZM3,1L3,2L2,2L2,1L3,1Z" style="fill:rgb(26,122,230);"/>
</svg>
