<?xml version="1.0" encoding="UTF-8" standalone="no"?>
<!DOCTYPE svg PUBLIC "-//W3C//DTD SVG 1.1//EN" "http://www.w3.org/Graphics/SVG/1.1/DTD/svg11.dtd">
<svg width="100%" height="100%" viewBox="0 0 20 20" version="1.1" xmlns="http://www.w3.org/2000/svg" xmlns:xlink="http://www.w3.org/1999/xlink" xml:space="preserve" style="fill-rule:evenodd;clip-rule:evenodd;stroke-linejoin:round;stroke-miterlimit:1.41421;">
    <path id="Outline" d="M0,10.101C0.005,9.801 0.018,9.5 0.036,9.201C0.077,8.509 0.15,7.818 0.256,7.132C0.336,6.613 0.428,6.089 0.588,5.587C0.854,4.752 1.283,3.971 1.857,3.308C2.076,3.055 2.315,2.814 2.577,2.605C2.898,2.349 3.263,2.153 3.637,1.988C4.033,1.814 4.445,1.675 4.86,1.555C5.215,1.453 5.575,1.364 5.936,1.287C6.784,1.106 7.641,0.972 8.503,0.871C9.009,0.812 9.516,0.771 10.023,0.72C10.419,0.679 10.814,0.635 11.209,0.591C12.817,0.405 14.422,0.204 16.027,0L17.014,0L17.3,3.508C17.349,4.101 17.435,5.278 17.576,5.392C17.94,5.686 18.267,6.025 18.551,6.398C18.888,6.84 19.164,7.328 19.376,7.842C19.623,8.443 19.778,9.075 19.842,9.72C19.857,9.899 19.866,10.078 19.88,10.256C19.902,10.552 19.926,10.848 19.947,11.144C20.016,12.235 20.038,13.334 19.867,14.418C19.748,15.168 19.537,15.91 19.183,16.585C18.859,17.202 18.415,17.753 17.863,18.18C17.334,18.59 16.718,18.864 16.092,19.088C15.088,19.448 14.036,19.664 12.981,19.802C12.526,19.862 12.069,19.907 11.611,19.938C10.977,19.982 10.34,20.002 9.704,20C8.959,19.997 8.213,19.966 7.471,19.898C6.778,19.835 6.088,19.74 5.41,19.581C4.534,19.376 3.662,19.068 2.943,18.515C2.524,18.194 2.177,17.797 1.877,17.364C1.73,17.152 1.592,16.935 1.471,16.707C1.197,16.186 0.989,15.629 0.807,15.07C0.604,14.447 0.437,13.812 0.304,13.17C0.169,12.518 0.067,11.857 0.023,11.192C0.011,11.003 0.003,10.813 0,10.623L0,10.101Z"/>
    <path id="Bg" d="M16.092,1C16.092,1 11.324,1.616 9.554,1.769C7.784,1.922 4.375,2.381 3.142,3.436C2.514,3.973 1.858,4.818 1.507,6C1.297,6.706 0.959,8.748 1.004,10.744C1.049,12.74 1.854,15.481 2.513,16.513C3.171,17.545 3.83,18.254 6.033,18.693C8.237,19.132 13.509,19.299 16.595,17.796C19.681,16.292 18.953,11.708 18.858,9.975C18.763,8.242 17.636,5.81 14.96,5.231C12.34,4.664 8.411,5.038 7.291,5.616C6.577,5.984 5.557,7.044 5.405,8.564C5.253,10.085 5.037,12.383 6.411,13.565C7.784,14.747 10.773,14.886 12.446,14.334C14.119,13.782 15.212,12.667 15.212,12.667C15.212,12.667 13.536,10.505 12.446,10.488C11.444,10.472 9.868,10.637 8.925,10.359C7.982,10.082 6.662,8.693 6.662,8.693C6.662,8.693 8.057,7.535 9.051,6.898C9.796,6.42 13.47,5.722 15.589,7.026C17.317,8.09 17.401,8.761 17.601,10.103C17.801,11.444 17.797,13.841 17.601,14.59C17.405,15.34 16.48,16.472 15.966,16.642C15.452,16.811 13.044,18.308 6.411,17.411C3.949,17.078 3.519,15.744 3.519,15.744C3.519,15.744 2.289,14.462 2.261,10.359C2.251,8.79 2.198,6.367 3.305,4.947C4.181,3.823 5.907,3.492 7.291,3.18C9.33,2.718 16.218,2.539 16.218,2.539L16.092,1M10.371,13.949L11,11.898L13.766,12.539L10.371,13.949" style="fill:rgb(26,50,230);"/>
    <path id="Fg" d="M12.069,7.282L11.44,9.334L8.674,8.693L12.069,7.282Z" style="fill:rgb(13,40,242);"/>
</svg>
