<?xml version="1.0" encoding="UTF-8" standalone="no"?>
<!DOCTYPE svg PUBLIC "-//W3C//DTD SVG 1.1//EN" "http://www.w3.org/Graphics/SVG/1.1/DTD/svg11.dtd">
<svg width="100%" height="100%" viewBox="0 0 16 16" version="1.1" xmlns="http://www.w3.org/2000/svg" xmlns:xlink="http://www.w3.org/1999/xlink" xml:space="preserve" style="fill-rule:evenodd;clip-rule:evenodd;stroke-linejoin:round;stroke-miterlimit:1.41421;">
    <path id="Outline" d="M0,8.168C0.003,7.972 0.01,7.777 0.02,7.581C0.05,6.99 0.11,6.4 0.201,5.815C0.266,5.402 0.34,4.987 0.468,4.589C0.684,3.916 1.033,3.287 1.498,2.753C1.678,2.547 1.874,2.352 2.089,2.182C2.353,1.973 2.653,1.811 2.962,1.677C3.546,1.422 4.17,1.256 4.792,1.122C5.458,0.979 6.133,0.876 6.81,0.797C7.261,0.745 7.713,0.709 8.164,0.663C8.552,0.622 8.94,0.578 9.328,0.534C10.009,0.454 10.689,0.371 11.37,0.288L12.013,0.208L13.651,0C13.741,1.088 13.83,2.177 13.92,3.265C13.972,3.899 14.034,4.328 14.197,4.471C15.185,5.34 15.778,6.608 15.885,7.907C15.911,8.315 15.947,8.722 15.973,9.13C16.02,10.01 16.021,10.896 15.849,11.764C15.739,12.324 15.556,12.873 15.272,13.371C14.947,13.941 14.488,14.429 13.926,14.775C13.727,14.898 13.516,15 13.3,15.093C12.979,15.232 12.648,15.347 12.312,15.446C11.571,15.663 10.807,15.797 10.04,15.883C9.191,15.977 8.335,16.011 7.481,15.997C6.951,15.988 6.42,15.96 5.892,15.909C5.328,15.854 4.767,15.77 4.217,15.631C3.726,15.507 3.24,15.34 2.799,15.088C2.53,14.934 2.28,14.75 2.058,14.536C1.848,14.334 1.665,14.108 1.5,13.871C1.368,13.682 1.245,13.487 1.139,13.282C0.886,12.788 0.699,12.258 0.54,11.728C0.356,11.115 0.211,10.49 0.115,9.858C0.067,9.544 0.031,9.228 0.013,8.911C0.006,8.784 0.002,8.657 0,8.53L0,8.168Z"/>
    <path id="Bg" d="M12.738,1C12.738,1 9.03,1.479 7.653,1.598C6.276,1.717 3.625,2.074 2.666,2.895C2.177,3.312 1.668,3.969 1.394,4.889C1.231,5.438 0.968,7.027 1.003,8.579C1.038,10.131 1.665,12.263 2.177,13.066C2.689,13.869 3.201,14.419 4.915,14.761C6.628,15.103 10.729,15.233 13.129,14.063C15.53,12.894 14.964,9.328 14.89,7.98C14.816,6.632 13.939,4.741 11.858,4.291C9.82,3.849 6.764,4.141 5.893,4.59C5.338,4.876 4.544,5.701 4.426,6.883C4.308,8.066 4.14,9.853 5.208,10.772C6.276,11.692 8.601,11.8 9.902,11.371C11.204,10.941 12.054,10.074 12.054,10.074C12.054,10.074 10.75,8.393 9.902,8.379C9.123,8.367 7.898,8.496 7.164,8.28C6.431,8.063 5.404,6.983 5.404,6.983C5.404,6.983 6.489,6.083 7.262,5.587C7.842,5.215 10.699,4.672 12.347,5.687C13.691,6.514 13.756,7.037 13.912,8.08C14.067,9.123 14.064,10.987 13.912,11.57C13.759,12.153 13.04,13.034 12.64,13.166C12.241,13.298 10.368,14.462 5.208,13.764C3.294,13.505 2.959,12.468 2.959,12.468C2.959,12.468 2.002,11.471 1.981,8.28C1.973,7.059 1.932,5.174 2.793,4.07C3.474,3.195 4.817,2.939 5.893,2.695C7.479,2.336 12.836,2.197 12.836,2.197L12.738,1ZM8.289,11.072L8.778,9.476L10.929,9.975L8.289,11.072Z" style="fill:rgb(26,50,230);"/>
    <path id="Fg" d="M9.609,5.886L9.12,7.482L6.969,6.983L9.609,5.886Z" style="fill:rgb(13,40,242);"/>
</svg>
