<?xml version="1.0" encoding="UTF-8" standalone="no"?>
<!DOCTYPE svg PUBLIC "-//W3C//DTD SVG 1.1//EN" "http://www.w3.org/Graphics/SVG/1.1/DTD/svg11.dtd">
<svg width="100%" height="100%" viewBox="0 0 32 32" version="1.1" xmlns="http://www.w3.org/2000/svg" xmlns:xlink="http://www.w3.org/1999/xlink" xml:space="preserve" style="fill-rule:evenodd;clip-rule:evenodd;stroke-linejoin:round;stroke-miterlimit:1.41421;">
    <path id="Outline" d="M11.597,7.001C12.499,7.012 27,7 27,7L27,9L29,9L29,19L27,19L27,21L17,21L17,24.5C17,24.5 15.037,25.362 14.705,25.47C13.594,25.833 12.419,25.973 11.254,25.997C10.735,26.007 10.215,25.993 9.698,25.938C8.808,25.844 7.928,25.637 7.102,25.29C6.539,25.054 6.003,24.755 5.51,24.396C4.561,23.706 3.769,22.8 3.194,21.779C2.878,21.218 2.628,20.621 2.442,20.004C2.093,18.848 1.971,17.631 2.005,16.426C2.03,15.564 2.14,14.703 2.357,13.867C2.607,12.908 3.001,11.987 3.538,11.153C4.239,10.066 5.177,9.125 6.266,8.428C6.857,8.05 7.493,7.745 8.156,7.519C8.792,7.302 9.451,7.158 10.117,7.078C10.479,7.034 10.843,7.012 11.207,7.003C11.337,7 11.467,7 11.597,7.001Z" style="fill-rule:nonzero;"/>
    <path id="C" d="M15,23.233C13.973,23.745 12.624,24 10.967,24C8.734,24 6.996,23.306 5.751,21.915C4.585,20.623 4,18.919 4,16.809C4,14.473 4.7,12.589 6.097,11.154C7.494,9.718 9.298,9 11.515,9C12.89,9 14.047,9.18 15,9.536L15,12.681C14.047,12.101 12.974,11.811 11.773,11.811C10.492,11.811 9.454,12.214 8.644,13.016C7.777,13.877 7.346,15.064 7.346,16.575C7.346,17.976 7.729,19.095 8.495,19.929C9.265,20.76 10.296,21.18 11.597,21.18C12.837,21.18 13.973,20.867 15,20.248L15,23.233Z" style="fill:rgb(60,138,63);"/>
    <path id="Sharp" d="M21,11L23,11L23,9L25,9L25,11L27,11L27,13L25,13L25,15L27,15L27,17L25,17L25,19L23,19L23,17L21,17L21,19L19,19L19,17L17,17L17,15L19,15L19,13L17,13L17,11L19,11L19,9L21,9L21,11ZM23,15L23,13L21,13L21,15L23,15Z" style="fill:rgb(60,138,63);"/>
</svg>
