<?xml version="1.0" encoding="UTF-8" standalone="no"?>
<!DOCTYPE svg PUBLIC "-//W3C//DTD SVG 1.1//EN" "http://www.w3.org/Graphics/SVG/1.1/DTD/svg11.dtd">
<svg width="100%" height="100%" viewBox="0 0 32 32" version="1.1" xmlns="http://www.w3.org/2000/svg" xmlns:xlink="http://www.w3.org/1999/xlink" xml:space="preserve" style="fill-rule:evenodd;clip-rule:evenodd;stroke-linejoin:round;stroke-miterlimit:1.41421;">
    <path id="Outline" d="M2.979,9.002C3.4,8.991 24.653,8.995 25.604,9.001C26.759,9.021 27.973,9.189 28.941,9.867C29.096,9.976 29.244,10.097 29.38,10.229C29.797,10.633 30.109,11.141 30.295,11.69C30.429,12.086 30.498,12.501 30.524,12.918C30.554,13.403 30.533,13.894 30.428,14.369C30.294,14.979 30.018,15.561 29.606,16.033C29.419,16.248 29.205,16.436 28.974,16.603L28.952,16.618C29.008,16.705 29.06,16.796 29.111,16.886C29.162,16.979 29.211,17.072 29.259,17.167C29.309,17.267 29.357,17.367 29.404,17.468C29.897,18.566 30.381,19.668 30.869,20.768C30.943,20.95 30.991,21.138 30.999,21.335C31.017,21.771 30.851,22.203 30.546,22.515C30.432,22.632 30.298,22.732 30.153,22.81C30.009,22.887 29.852,22.942 29.691,22.973C29.603,22.989 29.581,22.989 29.493,22.997C29.08,23.01 2.888,23 2.595,23C2.41,22.995 2.23,22.966 2.055,22.903C1.622,22.745 1.27,22.401 1.105,21.97C1.037,21.791 1.007,21.606 1,21.416C1.058,17.782 1.301,14.153 1.452,10.521C1.462,10.367 1.489,10.217 1.54,10.071C1.692,9.64 2.029,9.289 2.452,9.118C2.621,9.049 2.797,9.015 2.979,9.002Z"/>
    <path id="Fg" d="M3.999,21.4C3.999,21.731 3.727,22 3.392,22C3.144,22 2.858,22 2.607,22C2.442,22 2.284,21.933 2.169,21.815C2.055,21.698 1.994,21.539 2.001,21.375C2.087,19.29 2.367,12.586 2.451,10.575C2.464,10.254 2.732,10 3.058,10C3.408,10 3.848,10 4.176,10C4.454,10 4.696,10.186 4.765,10.452C5,11.362 5.533,13.424 5.825,14.553C5.848,14.642 5.929,14.704 6.022,14.703C6.114,14.703 6.195,14.64 6.217,14.551C6.499,13.425 7.012,11.368 7.239,10.456C7.306,10.188 7.55,10 7.829,10C8.167,10 8.623,10 8.983,10C9.309,10 9.576,10.254 9.59,10.575C9.675,12.585 9.959,19.289 10.047,21.375C10.054,21.538 9.993,21.697 9.879,21.815C9.764,21.933 9.606,22 9.44,22C9.19,22 8.904,22 8.656,22C8.321,22 8.049,21.731 8.049,21.4C8.049,20.111 8.049,17.051 8.049,15.296C8.049,15.197 7.976,15.114 7.877,15.098C7.779,15.083 7.684,15.142 7.653,15.236C7.356,16.164 6.967,17.38 6.766,18.009C6.686,18.259 6.451,18.428 6.187,18.428C6.081,18.428 5.968,18.428 5.862,18.428C5.597,18.428 5.362,18.259 5.283,18.009C5.081,17.38 4.692,16.164 4.395,15.236C4.365,15.142 4.27,15.083 4.171,15.098C4.072,15.114 3.999,15.197 3.999,15.296C3.999,17.051 3.999,20.111 3.999,21.4ZM20.198,20.974C20.199,21.226 20.039,21.452 19.799,21.539C19.43,21.67 19.069,21.774 18.718,21.848C18.241,21.949 17.744,22 17.229,22C16.403,22 15.673,21.876 15.037,21.629C14.402,21.382 13.866,21.014 13.43,20.526C12.993,20.037 12.662,19.431 12.437,18.707C12.211,17.984 12.099,17.142 12.099,16.183C12.099,15.2 12.222,14.326 12.468,13.561C12.714,12.795 13.065,12.149 13.522,11.622C13.979,11.095 14.533,10.692 15.186,10.415C15.839,10.138 16.573,10 17.387,10C17.651,10 17.898,10.006 18.129,10.018C18.361,10.03 18.588,10.052 18.81,10.085C19.033,10.118 19.258,10.161 19.487,10.214C19.574,10.235 19.662,10.258 19.752,10.282C20.016,10.354 20.198,10.591 20.198,10.861C20.198,11.102 20.198,11.412 20.198,11.702C20.197,11.895 20.103,12.076 19.944,12.188C19.784,12.301 19.58,12.33 19.395,12.268C19.184,12.195 18.977,12.136 18.775,12.091C18.324,11.99 17.914,11.939 17.545,11.939C17,11.939 16.535,12.039 16.148,12.238C15.762,12.438 15.444,12.718 15.195,13.078C14.946,13.439 14.763,13.867 14.646,14.365C14.529,14.862 14.471,15.409 14.471,16.004C14.471,16.636 14.531,17.2 14.651,17.698C14.771,18.195 14.957,18.617 15.208,18.962C15.46,19.308 15.782,19.571 16.175,19.753C16.567,19.934 17.033,20.025 17.571,20.025C17.765,20.025 17.974,20.006 18.2,19.967C18.425,19.929 18.653,19.878 18.885,19.815C19.116,19.753 19.344,19.678 19.57,19.592C19.571,19.592 19.571,19.591 19.572,19.591C19.713,19.537 19.873,19.555 19.998,19.64C20.123,19.724 20.198,19.865 20.198,20.014C20.198,20.333 20.198,20.7 20.198,20.974ZM24.325,21.4C24.325,21.731 24.053,22 23.717,22C23.439,22 23.109,22 22.83,22C22.669,22 22.515,21.937 22.401,21.824C22.287,21.712 22.223,21.559 22.223,21.4C22.223,19.352 22.223,12.648 22.223,10.6C22.223,10.441 22.287,10.288 22.401,10.176C22.515,10.063 22.669,10 22.83,10C23.772,10 25.478,10 25.478,10C26.093,10 26.651,10.057 27.153,10.17C27.654,10.283 28.081,10.471 28.434,10.735C28.787,10.998 29.059,11.34 29.25,11.763C29.441,12.185 29.536,12.702 29.536,13.314C29.536,13.755 29.476,14.147 29.357,14.49C29.237,14.832 29.069,15.128 28.853,15.376C28.636,15.624 28.379,15.824 28.08,15.977C28.059,15.988 28.038,15.998 28.017,16.008C27.876,16.078 27.775,16.208 27.742,16.36C27.71,16.513 27.75,16.672 27.851,16.792C27.85,16.795 27.852,16.797 27.853,16.799C28.081,17.071 28.309,17.464 28.537,17.979C28.537,17.979 29.425,19.98 29.949,21.159C30.031,21.345 30.013,21.559 29.901,21.728C29.789,21.898 29.598,22 29.393,22C29.003,22 28.571,22 28.263,22C28.016,22 27.792,21.851 27.7,21.624C27.305,20.654 26.281,18.144 26.281,18.144C26.133,17.777 25.927,17.5 25.662,17.313C25.397,17.126 25.085,17.033 24.726,17.033C24.726,17.033 24.726,17.033 24.726,17.033C24.504,17.033 24.325,17.21 24.325,17.429C24.325,18.297 24.325,20.371 24.325,21.4ZM25.247,11.882C25.247,11.882 25.105,11.882 24.932,11.882C24.597,11.882 24.325,12.151 24.325,12.482C24.325,13.099 24.325,14.053 24.325,14.67C24.325,14.829 24.389,14.982 24.503,15.094C24.616,15.207 24.771,15.27 24.932,15.27C25.071,15.27 25.179,15.27 25.179,15.27C25.504,15.27 25.798,15.233 26.063,15.16C26.328,15.086 26.555,14.976 26.742,14.829C26.93,14.682 27.076,14.5 27.178,14.283C27.281,14.066 27.332,13.816 27.332,13.535C27.332,12.947 27.158,12.525 26.811,12.268C26.463,12.011 25.942,11.882 25.247,11.882Z" style="fill:rgb(13,40,242);"/>
</svg>
