<?xml version="1.0" encoding="UTF-8" standalone="no"?>
<!DOCTYPE svg PUBLIC "-//W3C//DTD SVG 1.1//EN" "http://www.w3.org/Graphics/SVG/1.1/DTD/svg11.dtd">
<svg width="100%" height="100%" viewBox="0 0 32 32" version="1.1" xmlns="http://www.w3.org/2000/svg" xmlns:xlink="http://www.w3.org/1999/xlink" xml:space="preserve" style="fill-rule:evenodd;clip-rule:evenodd;stroke-linejoin:round;stroke-miterlimit:1.41421;">
    <path id="Outline" d="M23.01,8.001C23.35,8.007 23.688,8.029 24.027,8.065C24.504,8.116 24.98,8.186 25.45,8.283C25.547,8.303 25.651,8.327 25.746,8.348C25.869,8.377 25.993,8.403 26.111,8.449C26.509,8.603 26.825,8.934 26.964,9.338C27.011,9.474 27.034,9.614 27.043,9.757C27.054,10.273 27.045,10.79 27.045,11.306C27.038,11.501 27.003,11.689 26.927,11.868C26.712,12.372 26.219,12.723 25.671,12.755C25.557,12.762 25.442,12.755 25.329,12.735C25.241,12.719 25.155,12.692 25.069,12.667C24.983,12.642 24.896,12.619 24.81,12.596C24.692,12.566 24.574,12.538 24.455,12.512C23.948,12.404 23.43,12.335 22.911,12.341C22.652,12.344 22.387,12.36 22.135,12.426C22.016,12.456 21.897,12.496 21.79,12.556C21.742,12.582 21.687,12.615 21.658,12.663C21.619,12.726 21.608,12.811 21.603,12.883C21.599,12.941 21.593,13.012 21.623,13.064C21.652,13.115 21.702,13.158 21.744,13.198C21.851,13.297 21.973,13.381 22.099,13.453C22.309,13.572 22.526,13.677 22.746,13.775C23.026,13.894 23.309,14.005 23.59,14.12C23.848,14.229 24.106,14.336 24.361,14.451C24.634,14.574 24.902,14.707 25.164,14.849C25.387,14.97 25.606,15.096 25.816,15.238C26.146,15.463 26.452,15.722 26.726,16.012C27.251,16.567 27.646,17.262 27.839,18.003C27.982,18.555 28.017,19.129 27.993,19.697C27.968,20.278 27.875,20.859 27.687,21.41C27.373,22.328 26.797,23.149 26.025,23.739C25.051,24.483 23.84,24.841 22.631,24.956C22.185,24.999 21.737,25.006 21.289,24.995C20.317,24.971 5.906,25 5.446,25C5.299,24.996 5.156,24.976 5.016,24.931C4.59,24.794 4.244,24.46 4.09,24.039C4.03,23.877 4.005,23.71 4,23.538C4.096,18.818 4.426,14.106 4.64,9.39C4.649,9.252 4.673,9.118 4.718,8.987C4.853,8.595 5.155,8.271 5.538,8.112C5.694,8.046 5.856,8.014 6.024,8.002C6.791,7.982 22.066,8.026 22.542,8.006C22.698,8.002 22.854,8 23.01,8.001Z" style="fill-rule:nonzero;"/>
    <path id="Fg" d="M14.128,24C13.88,24 13.677,23.799 13.669,23.545C13.626,22.062 13.485,17.292 13.399,14.41C13.394,14.226 13.259,14.074 13.081,14.049C12.903,14.025 12.734,14.136 12.681,14.312C12.159,16.06 11.473,18.357 11.221,19.204C11.162,19.401 10.983,19.536 10.782,19.536C10.505,19.536 10.115,19.536 9.835,19.536C9.628,19.536 9.447,19.394 9.392,19.19C9.175,18.377 8.616,16.283 8.163,14.586C8.115,14.406 7.945,14.29 7.765,14.312C7.584,14.334 7.447,14.489 7.442,14.674C7.366,17.575 7.249,22.103 7.211,23.544C7.205,23.798 7.001,24 6.753,24C6.378,24 5.843,24 5.459,24C5.333,24 5.214,23.948 5.127,23.855C5.04,23.762 4.995,23.638 5,23.51C5.104,21.224 5.539,11.638 5.638,9.447C5.65,9.197 5.851,9 6.097,9C6.686,9 7.724,9 8.264,9C8.47,9 8.651,9.141 8.706,9.343C8.956,10.262 9.648,12.812 10.072,14.376C10.116,14.538 10.26,14.65 10.424,14.651C10.589,14.652 10.733,14.541 10.779,14.379C11.219,12.814 11.938,10.255 12.195,9.339C12.252,9.138 12.431,9 12.636,9C13.186,9 14.258,9 14.861,9C15.106,9 15.307,9.197 15.319,9.447C15.42,11.636 15.861,21.223 15.967,23.509C15.972,23.637 15.927,23.762 15.84,23.855C15.754,23.948 15.634,24 15.508,24C15.102,24 14.524,24 14.128,24ZM27,19.362C27,20.154 26.869,20.842 26.607,21.426C26.345,22.01 25.978,22.493 25.507,22.874C25.036,23.255 24.476,23.538 23.825,23.723C23.175,23.908 22.465,24 21.696,24C21.012,24 20.352,23.956 19.715,23.867C19.19,23.794 18.67,23.68 18.154,23.527C17.959,23.468 17.825,23.285 17.825,23.077C17.824,22.653 17.824,21.924 17.824,21.39C17.825,21.24 17.896,21.099 18.015,21.011C18.134,20.924 18.287,20.9 18.427,20.947C18.543,20.985 18.66,21.023 18.78,21.06C19.111,21.163 19.445,21.254 19.78,21.332C20.115,21.409 20.448,21.47 20.78,21.515C21.112,21.559 21.434,21.581 21.745,21.581C22.21,21.581 22.605,21.537 22.93,21.448C23.255,21.359 23.52,21.237 23.726,21.082C23.931,20.927 24.081,20.742 24.174,20.527C24.267,20.313 24.313,20.076 24.313,19.817C24.313,19.462 24.222,19.165 24.039,18.924C23.857,18.684 23.616,18.471 23.318,18.286C23.019,18.101 22.679,17.935 22.298,17.787C21.916,17.639 21.528,17.48 21.133,17.31C20.739,17.14 20.35,16.947 19.969,16.733C19.587,16.518 19.247,16.252 18.949,15.934C18.65,15.616 18.41,15.237 18.227,14.797C18.045,14.357 17.954,13.826 17.954,13.205C17.954,12.635 18.047,12.095 18.232,11.585C18.418,11.075 18.71,10.629 19.108,10.248C19.506,9.867 20.017,9.564 20.641,9.338C21.264,9.113 22.017,9 22.9,9C23.159,9 23.429,9.013 23.711,9.039C23.993,9.065 24.271,9.098 24.547,9.139C24.822,9.179 25.088,9.227 25.343,9.283C25.464,9.309 25.581,9.336 25.693,9.363C25.899,9.414 26.045,9.602 26.045,9.819C26.045,10.204 26.045,10.819 26.045,11.29C26.044,11.438 25.975,11.577 25.859,11.665C25.743,11.753 25.592,11.78 25.454,11.737C25.419,11.728 25.383,11.718 25.348,11.707C25.096,11.633 24.835,11.568 24.567,11.513C24.298,11.457 24.028,11.415 23.756,11.385C23.484,11.356 23.225,11.341 22.979,11.341C22.548,11.341 22.183,11.38 21.885,11.457C21.586,11.535 21.341,11.642 21.148,11.779C20.956,11.916 20.817,12.084 20.73,12.284C20.644,12.484 20.601,12.706 20.601,12.95C20.601,13.253 20.692,13.514 20.875,13.732C21.057,13.95 21.299,14.146 21.601,14.32C21.903,14.494 22.245,14.656 22.626,14.808C23.008,14.96 23.399,15.122 23.8,15.296C24.202,15.47 24.593,15.668 24.975,15.89C25.356,16.112 25.698,16.382 26,16.7C26.302,17.018 26.544,17.393 26.726,17.826C26.909,18.259 27,18.771 27,19.362Z" style="fill:rgb(13,40,242);"/>
</svg>
