<?xml version="1.0" encoding="UTF-8" standalone="no"?>
<!DOCTYPE svg PUBLIC "-//W3C//DTD SVG 1.1//EN" "http://www.w3.org/Graphics/SVG/1.1/DTD/svg11.dtd">
<svg width="100%" height="100%" viewBox="0 0 32 32" version="1.1" xmlns="http://www.w3.org/2000/svg" xmlns:xlink="http://www.w3.org/1999/xlink" xml:space="preserve" style="fill-rule:evenodd;clip-rule:evenodd;stroke-linejoin:round;stroke-miterlimit:1.41421;">
    <path id="Bg" d="M8.571,23.556C8.431,23.555 8.29,23.554 8.149,23.553C7.793,23.539 7.446,23.488 7.101,23.395C5.986,23.095 5.028,22.351 4.373,21.412C3.936,20.787 3.627,20.081 3.417,19.35C3.235,18.72 3.125,18.07 3.063,17.418C3.019,16.947 3,16.474 3,16.001C3.001,14.083 3.353,12.034 4.612,10.516C4.776,10.318 4.955,10.131 5.146,9.958C5.367,9.759 5.606,9.579 5.858,9.42C6.209,9.201 6.587,9.026 6.98,8.898C7.489,8.733 8.017,8.657 8.552,8.653L8.598,8.654C8.598,8.326 8.597,7.997 8.598,7.668C8.598,7.66 8.6,7.699 8.6,7.691C8.595,7.555 8.594,7.556 8.593,7.418L8.6,7.259C8.633,6.911 8.7,6.574 8.824,6.246C8.918,5.996 9.039,5.757 9.183,5.532C9.289,5.367 9.408,5.209 9.537,5.06C10.556,3.887 12.117,3.375 13.61,3.158C13.845,3.124 14.081,3.097 14.318,3.075C14.662,3.044 15.006,3.027 15.352,3.015C15.648,3.009 15.942,2.998 16.239,3C16.523,3.007 16.807,3.016 17.091,3.035C17.355,3.053 17.618,3.078 17.88,3.111C19.493,3.314 21.167,3.85 22.287,5.09C22.503,5.329 22.694,5.591 22.854,5.871C23.036,6.189 23.177,6.531 23.271,6.885C23.387,7.321 23.426,7.766 23.396,8.215L23.4,8.174L23.4,8.44C23.558,8.442 23.715,8.444 23.872,8.446C24.227,8.463 24.572,8.518 24.915,8.613C25.961,8.903 26.872,9.584 27.517,10.448C27.965,11.048 28.291,11.732 28.517,12.444C28.738,13.139 28.867,13.86 28.936,14.586C28.971,14.956 28.99,15.327 28.997,15.699C29.002,15.996 29,16.293 28.988,16.589C28.917,18.314 28.513,20.109 27.39,21.467C27.226,21.665 27.049,21.852 26.858,22.024C26.597,22.262 26.312,22.472 26.007,22.651C25.661,22.854 25.29,23.016 24.906,23.133C24.411,23.283 23.895,23.357 23.379,23.349C23.379,23.676 23.379,24.003 23.379,24.33C23.379,24.338 23.376,24.299 23.376,24.307C23.381,24.443 23.383,24.442 23.383,24.579C23.369,24.897 23.324,25.203 23.235,25.509C23.176,25.714 23.094,25.914 22.999,26.105C22.916,26.272 22.821,26.432 22.715,26.585C21.993,27.631 20.827,28.252 19.626,28.585C18.904,28.786 18.158,28.895 17.411,28.95C16.95,28.985 16.486,29.003 16.024,29C15.642,28.997 15.261,28.988 14.881,28.962C14.617,28.944 14.354,28.92 14.092,28.887C12.425,28.676 10.688,28.107 9.574,26.781C9.403,26.577 9.25,26.358 9.117,26.126C8.936,25.808 8.794,25.467 8.7,25.112C8.585,24.677 8.545,24.232 8.576,23.783L8.571,23.823L8.571,23.556Z" style="fill:rgb(166,166,166);"/>
    <path id="Fg1" d="M16.031,4.01C9.879,4.01 10,6.658 10,6.658L10,9L16,9L16,10.033L7.938,10.033C7.938,10.033 4,9.789 4,16.004C4,22.219 7.477,21.966 7.477,21.966L9.484,21.966L9.484,19.067C9.484,19.067 9.372,15.606 12.864,15.606L18.723,15.606C18.723,15.606 21.991,15.657 21.991,12.456L21.991,7.202C21.991,7.202 22.487,4 16.063,4L16.031,4.01ZM12.797,5.854C12.806,5.853 12.815,5.853 12.823,5.853C13.401,5.853 13.875,6.326 13.875,6.9C13.875,7.475 13.401,7.948 12.823,7.948C12.256,7.948 11.786,7.491 11.772,6.927L11.772,6.909C11.772,6.335 12.247,5.862 12.824,5.862L12.797,5.854Z" style="fill:url(#_Linear1);fill-rule:nonzero;"/>
    <path id="Fg2" d="M15.964,27.998C22.105,27.998 22,25.341 22,25.341L22,23L16,23L16,22L24,22C24,22 28,22.174 28,15.995C28,9.817 24.529,10.034 24.529,10.034L22.499,10.034L22.499,12.895C22.499,12.895 22.611,16.356 19.126,16.356L13.274,16.356C13.274,16.356 10.009,16.307 10.009,19.509L10.009,24.798C10.009,24.798 9.514,28 15.927,28L15.961,28L15.964,27.998M19.192,26.146C19.183,26.146 19.174,26.146 19.166,26.146C18.59,26.146 18.116,25.674 18.116,25.099C18.116,24.525 18.59,24.052 19.166,24.052C19.732,24.052 20.201,24.509 20.215,25.073L20.215,25.099C20.215,25.673 19.741,26.146 19.165,26.146L19.192,26.146" style="fill:url(#_Linear2);fill-rule:nonzero;"/>
    <defs>
        <linearGradient id="_Linear1" x1="0" y1="0" x2="1" y2="0" gradientUnits="userSpaceOnUse" gradientTransform="matrix(11.4866,11.4604,-11.5127,11.4345,6.39724,6.35898)"><stop offset="0%" style="stop-color:rgb(56,126,184);stop-opacity:1"/><stop offset="100%" style="stop-color:rgb(54,105,148);stop-opacity:1"/></linearGradient>
        <linearGradient id="_Linear2" x1="0" y1="0" x2="1" y2="0" gradientUnits="userSpaceOnUse" gradientTransform="matrix(13.1045,11.4604,-11.4925,13.068,12.9735,13.8077)"><stop offset="0%" style="stop-color:rgb(255,224,82);stop-opacity:1"/><stop offset="100%" style="stop-color:rgb(255,195,49);stop-opacity:1"/></linearGradient>
    </defs>
</svg>
