<?xml version="1.0" encoding="UTF-8" standalone="no"?>
<!DOCTYPE svg PUBLIC "-//W3C//DTD SVG 1.1//EN" "http://www.w3.org/Graphics/SVG/1.1/DTD/svg11.dtd">
<svg width="100%" height="100%" viewBox="0 0 20 20" version="1.1" xmlns="http://www.w3.org/2000/svg" xmlns:xlink="http://www.w3.org/1999/xlink" xml:space="preserve" style="fill-rule:evenodd;clip-rule:evenodd;stroke-linejoin:round;stroke-miterlimit:1.41421;">
    <path id="Outline" d="M17,4.5L9,10.5L9,7.126C8.373,7.292 7.792,7.603 7.311,8.04C6.907,8.407 6.578,8.857 6.353,9.355C5.967,10.209 5.895,11.193 6.152,12.095C6.258,12.469 6.42,12.827 6.63,13.154C6.855,13.505 7.135,13.821 7.457,14.086C7.755,14.332 8.088,14.535 8.444,14.686C9.338,15.064 10.363,15.101 11.282,14.79C11.649,14.666 11.998,14.487 12.314,14.262C12.785,13.927 13.182,13.49 13.47,12.989C13.74,12.52 13.912,11.998 13.974,11.46C13.999,11.241 14.004,11.021 13.995,10.801L13.947,9.964L18.64,8.399C18.762,8.858 18.859,9.352 18.922,9.809C18.937,9.93 18.951,10.05 18.962,10.171C19.016,10.791 19.012,11.414 18.941,12.032C18.803,13.243 18.414,14.422 17.806,15.479C17.285,16.386 16.605,17.199 15.807,17.874C15.032,18.53 14.146,19.054 13.197,19.415C12.358,19.734 11.472,19.925 10.577,19.982C9.703,20.037 8.822,19.966 7.969,19.769C7.041,19.555 6.148,19.191 5.334,18.696C4.41,18.134 3.589,17.406 2.921,16.556C2.246,15.698 1.73,14.717 1.405,13.675C1.056,12.554 0.932,11.365 1.036,10.195C1.147,8.941 1.525,7.714 2.14,6.615C2.792,5.45 3.703,4.435 4.791,3.662C5.623,3.07 6.555,2.621 7.538,2.342C8.006,2.208 8.484,2.117 8.968,2.059L9,2.055L9,0L11,0L17,4.5Z" style="fill:rgb(216,216,216);"/>
    <path id="Fg" d="M10,1L15,4.5L10,8L10,6C7.24,6 5,8.24 5,11C5,13.76 7.24,16 10,16C12.76,16 15,13.76 15,11C15,10.889 14.996,10.779 14.989,10.67L17.895,9.702C17.964,10.124 18,10.558 18,11C18,15.415 14.415,19 10,19C5.585,19 2,15.415 2,11C2,6.585 5.585,3 10,3L10,1Z" style="fill:rgb(0,83,156);"/>
</svg>
