<?xml version="1.0" encoding="UTF-8" standalone="no"?>
<!DOCTYPE svg PUBLIC "-//W3C//DTD SVG 1.1//EN" "http://www.w3.org/Graphics/SVG/1.1/DTD/svg11.dtd">
<svg width="100%" height="100%" viewBox="0 0 16 16" version="1.1" xmlns="http://www.w3.org/2000/svg" xmlns:xlink="http://www.w3.org/1999/xlink" xml:space="preserve" style="fill-rule:evenodd;clip-rule:evenodd;stroke-linejoin:round;stroke-miterlimit:1.41421;">
    <path id="Outline" d="M1,9.149C1,5.629 3.612,2.709 7,2.222L7,0L8.541,0L13.571,4.152L7,9.571L7,6.32C5.835,6.732 4.998,7.845 4.998,9.149C4.998,10.803 6.345,12.149 8,12.149C9.654,12.149 11,10.803 11,9.149C11,8.996 10.977,8.845 10.952,8.698L10.814,7.9L14.541,6.406L14.809,7.536C14.936,8.07 15,8.613 15,9.149C15,12.516 12.608,15.335 9.436,16L6.564,16C3.391,15.335 1,12.516 1,9.149" style="fill:rgb(246,246,246);fill-rule:nonzero;"/>
    <path id="Bg" d="M14,9.149C14,12.461 11.316,15.149 8,15.149C4.686,15.149 2,12.461 2,9.149C2,5.836 4.686,3.151 8,3.151L8,0.85L12,4.151L8,7.45L8,5.149C5.793,5.149 3.998,6.942 3.998,9.149C3.998,11.36 5.793,13.149 8,13.149C10.211,13.149 12,11.36 12,9.149C12,8.937 11.973,8.73 11.937,8.527L13.836,7.766C13.941,8.211 14,8.671 14,9.149" style="fill:rgb(0,83,156);fill-rule:nonzero;"/>
</svg>
