<?xml version="1.0" encoding="UTF-8" standalone="no"?>
<!DOCTYPE svg PUBLIC "-//W3C//DTD SVG 1.1//EN" "http://www.w3.org/Graphics/SVG/1.1/DTD/svg11.dtd">
<svg width="100%" height="100%" viewBox="0 0 48 48" version="1.1" xmlns="http://www.w3.org/2000/svg" xmlns:xlink="http://www.w3.org/1999/xlink" xml:space="preserve" xmlns:serif="http://www.serif.com/" style="fill-rule:evenodd;clip-rule:evenodd;stroke-linejoin:round;stroke-miterlimit:1.41421;">
    <g id="Paper">
        <path id="Shadow" d="M34,10c0,-2.761 -2.239,-5 -5,-5c-6.221,0 -16.779,0 -23,0c-2.761,0 -5,2.239 -5,5c0,7.685 0,22.315 0,30c0,2.761 2.239,5 5,5c6.221,0 16.779,0 23,0c2.761,0 5,-2.239 5,-5c0,-7.685 0,-22.315 0,-30Z" style="fill-opacity:0.501961;"/>
        <path id="Background" d="M33,9c0,-2.761 -2.239,-5 -5,-5c-6.221,0 -16.779,0 -23,0c-2.761,0 -5,2.239 -5,5c0,7.685 0,22.315 0,30c0,2.761 2.239,5 5,5c6.221,0 16.779,0 23,0c2.761,0 5,-2.239 5,-5c0,-7.685 0,-22.315 0,-30Z" style="fill:#e0e0d1;"/>
        <path id="Lines" d="M29,38l0,2l-25,0l0,-2l25,0Zm0,-5l0,2l-25,0l0,-2l25,0Zm0,-5l0,2l-25,0l0,-2l25,0Zm0,-5l0,2l-25,0l0,-2l25,0Zm0,-5l0,2l-25,0l0,-2l25,0Zm-15,-9l0,2l-10,0l0,-2l10,0Z" style="fill:#bab9ad;"/>
    </g>
    <g id="Pen">
        <path id="Shadow1" serif:id="Shadow" d="M46.824,17.63c0.563,-0.563 0.879,-1.326 0.879,-2.121c0,-0.796 -0.316,-1.559 -0.879,-2.122c-1.67,-1.67 -3.987,-3.986 -5.657,-5.657c-0.562,-0.562 -1.325,-0.878 -2.121,-0.878c-0.796,0 -1.559,0.316 -2.121,0.878c-5.501,5.501 -19.799,19.799 -19.799,19.799l-2.129,12.014l12.028,-2.114c0,0 14.298,-14.298 19.799,-19.799Z" style="fill-opacity:0.501961;"/>
        <path id="Background1" serif:id="Background" d="M43.996,18.916l-9.9,-9.899l-16.97,16.971l-2.129,12.013l12.028,-2.114l16.971,-16.971Z" style="fill:#fff;"/>
        <path id="Tip" d="M14.997,38.001l0.851,-4.805l3.96,3.959l-4.811,0.846Z" style="fill:#343434;"/>
        <path id="Eraser" d="M46.824,16.088c1.172,-1.172 1.172,-3.071 0,-4.243c-1.67,-1.67 -3.987,-3.986 -5.657,-5.656c-1.171,-1.172 -3.071,-1.172 -4.242,0c-1.344,1.343 -2.829,2.828 -2.829,2.828l9.9,9.899c0,0 1.485,-1.485 2.828,-2.828Z" style="fill:#c75c5c;"/>
        <path id="Middle" d="M41.167,16.088l-4.242,-4.243l-15.557,15.557l-0.707,4.95l4.95,-0.708l15.556,-15.556Z" style="fill:#f5cf87;"/>
        <path id="Left" d="M36.925,11.845l-2.829,-2.828l-16.97,16.971l1.414,1.414l2.828,0l15.557,-15.557Z" style="fill:#e0995e;"/>
        <path id="Right" d="M43.996,18.916l-2.829,-2.828l-15.556,15.556l0,2.829l1.414,1.414l16.971,-16.971Z" style="fill:#e0995e;"/>
    </g>
</svg>
