<?xml version="1.0" encoding="UTF-8" standalone="no"?>
<!DOCTYPE svg PUBLIC "-//W3C//DTD SVG 1.1//EN" "http://www.w3.org/Graphics/SVG/1.1/DTD/svg11.dtd">
<svg width="100%" height="100%" viewBox="0 0 48 48" version="1.1" xmlns="http://www.w3.org/2000/svg" xmlns:xlink="http://www.w3.org/1999/xlink" xml:space="preserve" xmlns:serif="http://www.serif.com/" style="fill-rule:evenodd;clip-rule:evenodd;stroke-linejoin:round;stroke-miterlimit:1.41421;">
    <path id="Outline" d="M28.077,3c2.446,0.047 4.753,1.693 5.584,4.006c0,0 1.371,-1.762 2.79,-2.378c3.343,-1.452 6.737,3.155 10.085,6.502c1.472,1.511 1.488,4.122 0,5.648l-12.536,12.536c0,4.363 0.848,9.298 -0.592,12.288c-0.954,1.98 -3.043,3.326 -5.254,3.396c-7.435,0.141 -14.873,0.141 -22.308,0c-3.046,-0.096 -5.747,-2.787 -5.844,-5.844c-0.192,-10.101 -0.192,-20.207 0,-30.308c0.096,-3.026 2.77,-5.747 5.844,-5.844c7.409,-0.141 14.821,-0.048 22.231,-0.002Z" style="fill-rule:nonzero;"/>
    <g id="Paper">
        <path id="Background" d="M33,9c0,-2.761 -2.239,-5 -5,-5c-6,0 -16,0 -22,0c-2.761,0 -5,2.239 -5,5c0,7.685 0,22.315 0,30c0,2.761 2.239,5 5,5c6,0 16,0 22,0c2.761,0 5,-2.239 5,-5c0,-7.685 0,-22.315 0,-30Z" style="fill:#e0e0d1;"/>
        <path id="Lines" d="M29,38l0,2l-25,0l0,-2l25,0Zm0,-5l0,2l-25,0l0,-2l25,0Zm0,-5l0,2l-25,0l0,-2l25,0Zm0,-5l0,2l-25,0l0,-2l25,0Zm0,-5l0,2l-25,0l0,-2l25,0Zm-15,-9l0,2l-10,0l0,-2l10,0Z" style="fill:#bab9ad;"/>
    </g>
    <g id="Pen">
        <path id="Background1" serif:id="Background" d="M42.996,18.904l-9.9,-9.9l-16.97,16.971l-2.129,12.013l12.028,-2.114l16.971,-16.97Z" style="fill:#fff;"/>
        <path id="Tip" d="M13.997,37.988l0.851,-4.805l3.96,3.96l-4.811,0.845Z" style="fill:#343434;"/>
        <path id="Eraser" d="M45.824,16.075c1.172,-1.171 1.172,-3.071 0,-4.242c-1.67,-1.67 -3.987,-3.987 -5.657,-5.657c-1.171,-1.172 -3.071,-1.172 -4.242,0c-1.344,1.343 -2.829,2.828 -2.829,2.828l9.9,9.9c0,0 1.485,-1.485 2.828,-2.829Z" style="fill:#c75c5c;"/>
        <path id="Middle" d="M40.167,16.075l-4.242,-4.242l-15.557,15.556l-0.707,4.95l4.95,-0.707l15.556,-15.557Z" style="fill:#f5cf87;"/>
        <path id="Left" d="M35.925,11.833l-2.829,-2.829l-16.97,16.971l1.414,1.414l2.828,0l15.557,-15.556Z" style="fill:#e0995e;"/>
        <path id="Right" d="M42.996,18.904l-2.829,-2.829l-15.556,15.557l0,2.828l1.414,1.414l16.971,-16.97Z" style="fill:#e0995e;"/>
    </g>
</svg>
