<?xml version="1.0" encoding="UTF-8" standalone="no"?>
<!DOCTYPE svg PUBLIC "-//W3C//DTD SVG 1.1//EN" "http://www.w3.org/Graphics/SVG/1.1/DTD/svg11.dtd">
<svg width="100%" height="100%" viewBox="0 0 48 48" version="1.1" xmlns="http://www.w3.org/2000/svg" xmlns:xlink="http://www.w3.org/1999/xlink" xml:space="preserve" xmlns:serif="http://www.serif.com/" style="fill-rule:evenodd;clip-rule:evenodd;stroke-linejoin:round;stroke-miterlimit:1.41421;">
    <path id="Wrench" d="M39.699,6.356l0.106,0.001l0.107,0.004l0.108,0.005l0.108,0.007l0.109,0.008l0.109,0.01l0.109,0.012l0.111,0.013l0.11,0.015l0.111,0.017l0.112,0.019l0.112,0.02l0.113,0.022l0.113,0.024l0.113,0.025l0.114,0.028l0.114,0.029l0.114,0.031l0.152,0.043l0.149,0.045l0.146,0.045l0.143,0.047l0.141,0.047l0.137,0.049l0.135,0.05l0.132,0.051l0.129,0.051l0.127,0.053l0.124,0.054l0.121,0.054l0.119,0.056l0.116,0.057l0.114,0.057l0.111,0.058l0.109,0.059l0.106,0.06l0.104,0.061l0.101,0.061l0.099,0.062l0.097,0.063l0.094,0.064l0.091,0.064l0.09,0.065l0.087,0.065l0.085,0.066l0.083,0.067l0.08,0.067l0.078,0.067l0.076,0.068l0.074,0.069l0.071,0.069l0.069,0.069l0.068,0.069l0.065,0.07l0.063,0.07l0.06,0.07l0.059,0.071l0.057,0.07l0.055,0.071l0.052,0.071l0.051,0.07l0.049,0.071l0.047,0.07l0.045,0.071l0.043,0.07l0.041,0.07l0.04,0.07l0.038,0.069l0.035,0.069l0.035,0.069l0.032,0.068l0.031,0.068l0.029,0.067l0.028,0.067l0.026,0.066l0.025,0.066l0.023,0.064l0.022,0.065l0.02,0.063l0.019,0.063l0.018,0.061l0.014,0.054l0.026,0.129l0.008,0.131l0,0.061l-0.003,0.084l-0.008,0.083l-0.011,0.082l-0.015,0.081l-0.019,0.08l-0.022,0.079l-0.025,0.077l-0.028,0.076l-0.032,0.074l-0.035,0.073l-0.038,0.071l-0.04,0.068l-0.044,0.067l-0.046,0.065l-0.05,0.063l-0.052,0.061l-0.054,0.058l-0.057,0.056l-0.06,0.054l-0.062,0.051l-0.064,0.048l-0.066,0.046l-0.069,0.043l-0.071,0.04l-0.073,0.037l-0.075,0.033l-0.076,0.031l-0.078,0.027l-0.08,0.024l-0.082,0.02l-0.07,0.014l-0.751,0.135l-0.427,0.077l-0.449,0.082l-0.459,0.085l-0.458,0.087l-0.442,0.085l-0.423,0.084l-0.037,0.007l-0.022,0.004l-0.022,0.006l-0.022,0.005l-0.021,0.006l-0.021,0.007l-0.02,0.007l-0.021,0.007l-0.02,0.008l-0.02,0.008l-0.02,0.009l-0.019,0.009l-0.019,0.009l-0.019,0.01l-0.019,0.01l-0.019,0.011l-0.018,0.011l-0.018,0.012l-0.017,0.011l-0.018,0.013l-0.017,0.012l-0.017,0.013l-0.016,0.013l-0.016,0.014l-0.016,0.014l-0.016,0.014l-0.015,0.015l-0.015,0.015l-0.015,0.015l-0.014,0.016l-0.014,0.016l-0.014,0.016l-0.013,0.017l-0.013,0.016l-0.013,0.017l-0.012,0.018l-0.012,0.017l-0.011,0.018l-0.011,0.018l-0.011,0.019l-0.01,0.018l-0.01,0.019l-0.009,0.019l-0.009,0.019l-0.009,0.02l-0.008,0.019l-0.008,0.02l-0.007,0.02l-0.007,0.02l-0.007,0.021l-0.006,0.02l-0.005,0.021l-0.005,0.021l-0.005,0.021l-0.004,0.021l-0.004,0.021l-0.003,0.022l-0.003,0.021l-0.002,0.022l-0.002,0.022l-0.002,0.022l-0.001,0.022l0,0.023l0,0.067l-0.009,0.16l-0.005,0.117l-0.001,0.052l-0.001,0.053l0,0.051l0.001,0.05l0.002,0.046l0.002,0.044l0.003,0.042l0.003,0.038l0.004,0.035l0.004,0.03l0.004,0.027l0.004,0.021l0.007,0.031l0.009,0.033l0.011,0.036l0.012,0.039l0.016,0.042l0.017,0.045l0.02,0.047l0.021,0.049l0.024,0.051l0.026,0.052l0.028,0.054l0.03,0.056l0.031,0.056l0.033,0.058l0.035,0.058l0.036,0.06l0.038,0.06l0.039,0.06l0.04,0.061l0.04,0.06l0.086,0.125l0.088,0.124l0.09,0.124l0.092,0.122l0.092,0.121l0.089,0.117l0.03,0.037l0.022,0.027l0.023,0.026l0.024,0.025l0.025,0.023l0.026,0.023l0.026,0.022l0.027,0.021l0.027,0.02l0.028,0.019l0.029,0.018l0.029,0.017l0.03,0.016l0.03,0.015l0.031,0.014l0.031,0.013l0.032,0.012l0.032,0.011l0.033,0.01l0.032,0.008l0.033,0.008l0.034,0.006l0.033,0.005l0.034,0.005l0.034,0.002l0.034,0.002l0.034,0.001l0.034,-0.001l0.035,-0.001l0.034,-0.003l0.035,-0.004l0.043,-0.007l3.146,-0.544l0.097,-0.012l0.098,-0.003l0.051,0.002l0.075,0.005l0.089,0.009l0.096,0.015l0.065,0.013l0.062,0.015l0.067,0.018l0.071,0.023l0.075,0.028l0.079,0.035l0.084,0.042l0.087,0.052l0.091,0.063l0.082,0.068l0.054,0.051l0.044,0.047l0.044,0.051l0.043,0.055l0.04,0.059l0.038,0.062l0.035,0.066l0.032,0.068l0.027,0.071l0.023,0.073l0.019,0.074l0.015,0.074l0.01,0.075l0.006,0.074l0.002,0.073l-0.002,0.072l-0.006,0.071l-0.008,0.069l-0.012,0.067l-0.014,0.065l-0.017,0.063l-0.019,0.062l-0.021,0.06l-0.015,0.039l-0.046,0.12l-0.052,0.132l-0.056,0.131l-0.058,0.13l-0.06,0.13l-0.062,0.129l-0.065,0.128l-0.066,0.127l-0.069,0.126l-0.071,0.126l-0.073,0.124l-0.075,0.124l-0.077,0.122l-0.079,0.122l-0.08,0.12l-0.082,0.119l-0.084,0.119l-0.086,0.117l-0.087,0.116l-0.089,0.115l-0.09,0.114l-0.092,0.112l-0.093,0.112l-0.095,0.11l-0.096,0.109l-0.097,0.107l-0.098,0.106l-0.1,0.105l-0.101,0.103l-0.101,0.102l-0.103,0.1l-0.104,0.099l-0.106,0.097l-0.106,0.096l-0.106,0.094l-0.108,0.092l-0.109,0.091l-0.109,0.089l-0.111,0.087l-0.111,0.086l-0.111,0.083l-0.113,0.082l-0.113,0.08l-0.114,0.078l-0.114,0.075l-0.115,0.074l-0.115,0.072l-0.116,0.07l-0.117,0.067l-0.116,0.066l-0.118,0.063l-0.118,0.061l-0.118,0.058l-0.118,0.056l-0.119,0.054l-0.12,0.051l-0.12,0.048l-0.12,0.046l-0.12,0.044l-0.121,0.04l-0.121,0.038l-0.122,0.034l-0.122,0.032l-0.119,0.028l-0.077,0.016l-0.073,0.015l-0.073,0.014l-0.073,0.012l-0.073,0.012l-0.076,0.011l-0.142,0.018l-0.144,0.015l-0.143,0.012l-0.143,0.009l-0.142,0.006l-0.141,0.004l-0.14,0l-0.14,-0.001l-0.138,-0.004l-0.138,-0.006l-0.136,-0.007l-0.136,-0.009l-0.134,-0.011l-0.134,-0.012l-0.132,-0.012l-0.132,-0.014l-0.132,-0.015l-0.256,-0.032l-0.254,-0.033l-0.495,-0.066l-0.241,-0.032l-0.24,-0.029l-0.317,-0.038l-0.333,-0.041l-0.346,-0.04l-0.174,-0.019l-0.177,-0.019l-0.179,-0.017l-0.18,-0.016l-0.181,-0.014l-0.181,-0.012l-0.182,-0.01l-0.184,-0.007l-0.089,-0.002l-0.091,-0.002l-0.09,-0.001l-0.091,-0.001l-0.09,0.001l-0.089,0.001l-0.09,0.002l-0.089,0.003l-0.088,0.004l-0.088,0.005l-0.088,0.005l-0.087,0.007l-0.086,0.008l-0.085,0.009l-0.017,0.002l13.116,8.711l0.058,0.04l0.062,0.045l0.061,0.046l0.059,0.048l0.058,0.048l0.057,0.05l0.055,0.052l0.053,0.052l0.052,0.054l0.051,0.055l0.049,0.055l0.047,0.057l0.046,0.058l0.044,0.059l0.043,0.06l0.041,0.06l0.04,0.062l0.038,0.062l0.036,0.063l0.035,0.064l0.033,0.064l0.032,0.065l0.03,0.066l0.028,0.067l0.027,0.067l0.025,0.067l0.023,0.068l0.022,0.069l0.02,0.069l0.018,0.069l0.017,0.07l0.015,0.07l0.013,0.071l0.012,0.071l0.01,0.071l0.009,0.071l0.006,0.072l0.005,0.072l0.003,0.072l0.002,0.072l-0.001,0.072l-0.002,0.072l-0.003,0.072l-0.006,0.073l-0.007,0.072l-0.009,0.072l-0.011,0.072l-0.013,0.072l-0.014,0.072l-0.016,0.072l-0.018,0.071l-0.02,0.071l-0.022,0.071l-0.023,0.071l-0.025,0.07l-0.028,0.069l-0.028,0.07l-0.031,0.068l-0.033,0.068l-0.034,0.068l-0.037,0.067l-0.038,0.066l-0.039,0.065l-0.039,0.06l-2.217,3.344l-0.039,0.056l-0.043,0.06l-0.045,0.06l-0.046,0.058l-0.047,0.056l-0.049,0.056l-0.05,0.054l-0.051,0.053l-0.053,0.051l-0.054,0.05l-0.054,0.049l-0.056,0.047l-0.057,0.046l-0.059,0.045l-0.059,0.043l-0.06,0.041l-0.061,0.041l-0.062,0.038l-0.064,0.037l-0.064,0.036l-0.065,0.034l-0.065,0.032l-0.067,0.031l-0.068,0.029l-0.068,0.028l-0.069,0.026l-0.069,0.024l-0.071,0.023l-0.071,0.021l-0.072,0.019l-0.072,0.017l-0.073,0.016l-0.073,0.014l-0.073,0.012l-0.074,0.01l-0.073,0.008l-0.074,0.007l-0.074,0.005l-0.073,0.003l-0.074,0.001l-0.073,-0.001l-0.074,-0.003l-0.073,-0.004l-0.073,-0.006l-0.073,-0.008l-0.072,-0.01l-0.073,-0.011l-0.072,-0.013l-0.071,-0.015l-0.072,-0.017l-0.071,-0.018l-0.07,-0.021l-0.07,-0.021l-0.069,-0.024l-0.069,-0.025l-0.069,-0.027l-0.067,-0.029l-0.068,-0.031l-0.066,-0.032l-0.066,-0.034l-0.065,-0.035l-0.064,-0.037l-0.063,-0.039l-0.058,-0.037l-14.232,-9.453l-0.062,-0.043l-0.066,-0.046l-0.064,-0.048l-0.064,-0.049l-0.062,-0.05l-0.062,-0.051l-0.06,-0.053l-0.06,-0.054l-0.058,-0.055l-0.057,-0.056l-0.056,-0.057l-0.055,-0.059l-0.054,-0.06l-0.052,-0.06l-0.052,-0.062l-0.047,-0.059l-1.248,-1.597l-0.103,0.069l-0.894,0.604l-0.913,0.618l-0.927,0.63l-1.888,1.281l-0.954,0.647l-0.957,0.648l-0.957,0.646l-0.954,0.642l-0.948,0.634l-0.472,0.314l-0.469,0.312l-0.465,0.308l-0.463,0.305l-0.458,0.301l-0.455,0.298l-0.451,0.293l-0.446,0.288l-0.44,0.284l-0.46,0.294l-0.111,0.061l-0.079,0.046l-0.081,0.047l-0.08,0.047l-0.167,0.102l-0.169,0.104l-0.171,0.109l-0.175,0.112l-0.357,0.233l-0.183,0.119l-0.186,0.119l-0.189,0.12l-0.192,0.12l-0.194,0.118l-0.101,0.059l-0.1,0.058l-0.1,0.058l-0.102,0.057l-0.103,0.056l-0.104,0.056l-0.104,0.054l-0.106,0.054l-0.107,0.052l-0.108,0.051l-0.108,0.05l-0.111,0.049l-0.111,0.047l-0.112,0.045l-0.114,0.044l-0.115,0.041l-0.116,0.04l-0.118,0.038l-0.118,0.035l-0.12,0.034l-0.122,0.03l-0.122,0.029l-0.124,0.025l-0.125,0.023l-0.127,0.019l-0.128,0.017l-0.129,0.013l-0.13,0.01l-0.131,0.006l-0.132,0.003l-0.129,-0.001l-0.071,-0.002l-0.067,-0.003l-0.067,-0.004l-0.068,-0.005l-0.067,-0.006l-0.068,-0.007l-0.068,-0.008l-0.069,-0.009l-0.068,-0.01l-0.068,-0.011l-0.069,-0.012l-0.068,-0.014l-0.069,-0.014l-0.084,-0.019l-0.1,-0.027l-0.087,-0.026l-0.087,-0.028l-0.085,-0.029l-0.085,-0.031l-0.083,-0.033l-0.083,-0.034l-0.081,-0.036l-0.08,-0.037l-0.08,-0.039l-0.078,-0.041l-0.077,-0.042l-0.075,-0.043l-0.075,-0.045l-0.073,-0.047l-0.073,-0.047l-0.071,-0.049l-0.069,-0.05l-0.069,-0.052l-0.067,-0.053l-0.066,-0.054l-0.065,-0.055l-0.064,-0.056l-0.062,-0.057l-0.061,-0.059l-0.06,-0.059l-0.058,-0.061l-0.057,-0.061l-0.056,-0.062l-0.055,-0.064l-0.053,-0.064l-0.052,-0.065l-0.051,-0.066l-0.05,-0.066l-0.048,-0.068l-0.047,-0.068l-0.046,-0.069l-0.045,-0.069l-0.043,-0.071l-0.042,-0.07l-0.041,-0.072l-0.04,-0.072l-0.038,-0.073l-0.038,-0.073l-0.036,-0.074l-0.035,-0.074l-0.033,-0.075l-0.033,-0.075l-0.031,-0.076l-0.03,-0.076l-0.029,-0.077l-0.028,-0.077l-0.026,-0.077l-0.026,-0.078l-0.024,-0.078l-0.023,-0.078l-0.022,-0.079l-0.021,-0.079l-0.019,-0.08l-0.019,-0.079l-0.017,-0.08l-0.016,-0.08l-0.015,-0.081l-0.014,-0.08l-0.013,-0.081l-0.011,-0.081l-0.011,-0.081l-0.009,-0.081l-0.008,-0.082l-0.007,-0.081l-0.006,-0.082l-0.005,-0.081l-0.004,-0.082l-0.002,-0.082l-0.001,-0.082l-0.001,-0.081l0.001,-0.082l0.003,-0.082l0.003,-0.082l0.004,-0.082l0.006,-0.082l0.007,-0.081l0.008,-0.082l0.009,-0.082l0.01,-0.081l0.011,-0.081l0.013,-0.081l0.014,-0.081l0.015,-0.081l0.016,-0.081l0.017,-0.08l0.019,-0.081l0.02,-0.08l0.021,-0.079l0.022,-0.08l0.024,-0.079l0.024,-0.079l0.026,-0.078l0.028,-0.078l0.028,-0.078l0.03,-0.077l0.031,-0.077l0.032,-0.077l0.034,-0.076l0.035,-0.076l0.036,-0.075l0.038,-0.074l0.039,-0.074l0.04,-0.074l0.041,-0.073l0.043,-0.072l0.044,-0.072l0.046,-0.071l0.047,-0.07l0.048,-0.07l0.05,-0.068l0.051,-0.068l0.052,-0.067l0.054,-0.067l0.055,-0.065l0.056,-0.065l0.058,-0.064l0.059,-0.062l0.061,-0.062l0.062,-0.061l0.063,-0.059l0.065,-0.059l0.059,-0.051l0.106,-0.08l0.234,-0.154l0.239,-0.154l0.24,-0.152l0.24,-0.15l0.242,-0.148l0.242,-0.147l0.242,-0.144l0.244,-0.142l0.243,-0.142l0.244,-0.139l0.245,-0.138l0.245,-0.137l0.245,-0.136l0.245,-0.134l0.246,-0.134l0.246,-0.132l0.49,-0.263l0.491,-0.26l0.978,-0.516l0.487,-0.258l0.484,-0.258l0.483,-0.259l0.239,-0.13l0.244,-0.134l0.592,-0.318l0.6,-0.32l0.61,-0.323l0.619,-0.326l0.625,-0.328l0.633,-0.33l0.637,-0.331l0.642,-0.333l1.291,-0.667l1.295,-0.668l1.289,-0.665l0.212,-0.11l-9.109,-6.041l-0.101,-0.066l-0.098,-0.062l-0.099,-0.061l-0.1,-0.059l-0.101,-0.057l-0.102,-0.057l-0.102,-0.054l-0.103,-0.054l-0.104,-0.051l-0.104,-0.05l-0.105,-0.049l-0.106,-0.047l-0.106,-0.046l-0.107,-0.044l-0.108,-0.042l-0.108,-0.041l-0.109,-0.039l-0.11,-0.038l-0.109,-0.036l-0.111,-0.035l-0.111,-0.033l-0.111,-0.031l-0.112,-0.03l-0.113,-0.028l-0.113,-0.026l-0.113,-0.025l-0.114,-0.023l-0.114,-0.022l-0.114,-0.02l-0.115,-0.018l-0.115,-0.017l-0.119,-0.015l-0.003,-0.001l-0.068,-0.009l-0.073,-0.011l-0.072,-0.013l-0.072,-0.015l-0.072,-0.016l-0.071,-0.018l-0.071,-0.019l-0.07,-0.021l-0.07,-0.022l-0.069,-0.024l-0.069,-0.026l-0.068,-0.027l-0.067,-0.028l-0.067,-0.03l-0.066,-0.031l-0.065,-0.033l-0.064,-0.034l-0.064,-0.036l-0.063,-0.037l-0.062,-0.038l-0.061,-0.04l-0.061,-0.041l-0.059,-0.042l-0.059,-0.044l-0.058,-0.045l-0.056,-0.047l-0.056,-0.048l-0.055,-0.049l-0.054,-0.05l-0.053,-0.052l-0.051,-0.052l-0.047,-0.05l-2.883,-3.156l-0.035,-0.04l-0.039,-0.049l-0.038,-0.051l-0.035,-0.052l-0.032,-0.053l-0.031,-0.055l-0.028,-0.055l-0.025,-0.056l-0.023,-0.057l-0.021,-0.058l-0.018,-0.059l-0.015,-0.058l-0.014,-0.06l-0.011,-0.06l-0.008,-0.06l-0.006,-0.06l-0.003,-0.061l-0.001,-0.061l0.001,-0.06l0.004,-0.061l0.007,-0.061l0.009,-0.06l0.011,-0.06l0.014,-0.06l0.016,-0.06l0.019,-0.059l0.022,-0.058l0.024,-0.058l0.027,-0.057l0.029,-0.056l0.031,-0.055l0.029,-0.044l1.06,-1.6l0.03,-0.043l0.039,-0.051l0.04,-0.048l0.042,-0.047l0.044,-0.045l0.045,-0.042l0.047,-0.041l0.048,-0.038l0.05,-0.036l0.051,-0.034l0.053,-0.032l0.053,-0.03l0.054,-0.027l0.056,-0.025l0.056,-0.023l0.057,-0.02l0.058,-0.018l0.059,-0.016l0.059,-0.013l0.06,-0.011l0.06,-0.008l0.061,-0.006l0.062,-0.004l0.061,-0.001l0.062,0.002l0.062,0.004l0.062,0.007l0.061,0.009l0.062,0.012l0.061,0.015l0.061,0.017l0.051,0.017l4.028,1.427l0.064,0.024l0.069,0.027l0.068,0.028l0.067,0.03l0.067,0.031l0.066,0.033l0.065,0.035l0.064,0.035l0.063,0.037l0.062,0.038l0.062,0.04l0.06,0.041l0.06,0.042l0.058,0.044l0.058,0.045l0.056,0.046l0.056,0.047l0.054,0.049l0.054,0.05l0.052,0.05l0.051,0.053l0.05,0.053l0.049,0.054l0.048,0.056l0.047,0.056l0.045,0.058l0.044,0.059l0.043,0.06l0.041,0.06l0.041,0.062l0.039,0.063l0.035,0.059l0.001,0.003l0.06,0.103l0.06,0.099l0.062,0.099l0.063,0.098l0.064,0.096l0.066,0.096l0.067,0.095l0.068,0.093l0.07,0.093l0.071,0.091l0.072,0.091l0.074,0.089l0.074,0.089l0.077,0.087l0.077,0.086l0.078,0.085l0.08,0.084l0.081,0.082l0.082,0.082l0.084,0.08l0.084,0.079l0.086,0.078l0.087,0.077l0.088,0.075l0.089,0.075l0.09,0.072l0.091,0.072l0.093,0.07l0.093,0.069l0.095,0.068l0.095,0.067l0.1,0.067l9.49,6.293l0.376,-0.567l0.049,-0.071l0.061,-0.078l0.064,-0.075l0.067,-0.071l0.071,-0.068l0.074,-0.064l0.077,-0.06l0.079,-0.057l0.083,-0.052l0.084,-0.049l0.087,-0.044l0.09,-0.04l0.091,-0.036l0.094,-0.031l0.095,-0.027l0.096,-0.022l0.098,-0.017l0.098,-0.013l0.098,-0.007l0.098,-0.003l0.098,0.002l0.098,0.007l0.097,0.012l0.096,0.016l0.095,0.021l0.094,0.026l0.093,0.03l0.092,0.035l0.09,0.04l0.088,0.043l0.086,0.049l0.073,0.046l1.284,0.851l0.037,-0.021l0.239,-0.135l0.236,-0.133l0.231,-0.131l0.226,-0.13l0.221,-0.128l0.217,-0.126l0.211,-0.125l0.207,-0.122l0.201,-0.121l0.195,-0.119l0.19,-0.116l0.182,-0.114l0.038,-0.024l0.036,-0.023l0.035,-0.024l0.036,-0.025l0.035,-0.026l0.035,-0.026l0.036,-0.028l0.035,-0.028l0.035,-0.029l0.036,-0.029l0.035,-0.031l0.035,-0.031l0.035,-0.032l0.033,-0.031l0.072,-0.07l0.07,-0.07l0.07,-0.074l0.069,-0.077l0.069,-0.08l0.068,-0.082l0.068,-0.086l0.068,-0.088l0.067,-0.091l0.067,-0.093l0.066,-0.096l0.066,-0.098l0.065,-0.101l0.065,-0.103l0.064,-0.105l0.064,-0.107l0.063,-0.11l0.063,-0.111l0.062,-0.113l0.061,-0.114l0.061,-0.117l0.06,-0.118l0.06,-0.119l0.059,-0.121l0.059,-0.123l0.058,-0.123l0.058,-0.125l0.057,-0.125l0.057,-0.127l0.056,-0.128l0.055,-0.127l0.111,-0.26l0.108,-0.261l0.107,-0.263l0.105,-0.264l0.104,-0.263l0.207,-0.528l0.202,-0.52l0.102,-0.257l0.101,-0.253l0.102,-0.25l0.103,-0.249l0.041,-0.094l0.045,-0.098l0.049,-0.099l0.052,-0.1l0.055,-0.102l0.058,-0.102l0.061,-0.104l0.065,-0.105l0.067,-0.105l0.071,-0.107l0.074,-0.107l0.077,-0.108l0.081,-0.109l0.083,-0.11l0.087,-0.109l0.09,-0.11l0.094,-0.11l0.096,-0.11l0.1,-0.111l0.103,-0.109l0.106,-0.11l0.109,-0.109l0.113,-0.108l0.116,-0.108l0.119,-0.107l0.123,-0.105l0.126,-0.105l0.129,-0.103l0.132,-0.101l0.134,-0.099l0.071,-0.05l0.069,-0.049l0.071,-0.048l0.072,-0.048l0.072,-0.047l0.073,-0.047l0.074,-0.046l0.075,-0.045l0.075,-0.045l0.077,-0.044l0.077,-0.044l0.078,-0.043l0.079,-0.042l0.079,-0.041l0.081,-0.041l0.081,-0.039l0.082,-0.039l0.083,-0.039l0.084,-0.037l0.084,-0.036l0.086,-0.036l0.086,-0.035l0.087,-0.033l0.087,-0.033l0.089,-0.032l0.089,-0.03l0.09,-0.03l0.091,-0.029l0.091,-0.027l0.093,-0.027l0.093,-0.025l0.093,-0.024l0.095,-0.023l0.095,-0.022l0.096,-0.021l0.097,-0.019l0.097,-0.018l0.099,-0.017l0.098,-0.015l0.1,-0.014l0.1,-0.013l0.101,-0.012l0.102,-0.01l0.102,-0.008l0.103,-0.007l0.103,-0.006l0.104,-0.004l0.105,-0.003l0.105,-0.001l0.106,0.001Zm-0.193,1l-0.09,0.002l-0.09,0.004l-0.089,0.005l-0.088,0.006l-0.088,0.007l-0.087,0.009l-0.087,0.01l-0.086,0.011l-0.085,0.012l-0.085,0.013l-0.084,0.015l-0.084,0.015l-0.083,0.017l-0.082,0.017l-0.082,0.019l-0.082,0.02l-0.08,0.021l-0.08,0.021l-0.08,0.023l-0.079,0.024l-0.078,0.025l-0.078,0.025l-0.077,0.027l-0.076,0.027l-0.076,0.028l-0.075,0.03l-0.074,0.03l-0.074,0.03l-0.073,0.032l-0.073,0.032l-0.072,0.033l-0.071,0.034l-0.071,0.035l-0.07,0.035l-0.069,0.036l-0.069,0.037l-0.068,0.037l-0.068,0.038l-0.066,0.039l-0.067,0.039l-0.065,0.04l-0.065,0.04l-0.064,0.041l-0.063,0.042l-0.063,0.041l-0.062,0.043l-0.062,0.043l-0.061,0.043l-0.119,0.088l-0.117,0.09l-0.114,0.091l-0.111,0.092l-0.109,0.094l-0.105,0.094l-0.103,0.096l-0.1,0.096l-0.097,0.097l-0.094,0.097l-0.092,0.097l-0.088,0.098l-0.086,0.097l-0.082,0.098l-0.08,0.097l-0.077,0.097l-0.073,0.096l-0.071,0.095l-0.067,0.095l-0.065,0.093l-0.061,0.093l-0.058,0.091l-0.055,0.09l-0.053,0.088l-0.048,0.086l-0.046,0.084l-0.043,0.083l-0.039,0.08l-0.036,0.077l-0.033,0.076l-0.099,0.237l-0.098,0.244l-0.1,0.248l-0.1,0.254l-0.202,0.518l-0.207,0.529l-0.105,0.268l-0.108,0.268l-0.109,0.269l-0.112,0.268l-0.113,0.268l-0.058,0.133l-0.058,0.133l-0.059,0.132l-0.06,0.131l-0.061,0.131l-0.061,0.13l-0.062,0.129l-0.063,0.128l-0.063,0.127l-0.065,0.126l-0.065,0.125l-0.066,0.124l-0.067,0.122l-0.068,0.121l-0.069,0.119l-0.07,0.118l-0.071,0.116l-0.072,0.114l-0.073,0.113l-0.074,0.111l-0.075,0.108l-0.076,0.107l-0.078,0.104l-0.078,0.103l-0.08,0.1l-0.081,0.097l-0.082,0.095l-0.084,0.093l-0.084,0.09l-0.086,0.088l-0.088,0.084l-0.044,0.041l-0.045,0.041l-0.044,0.04l-0.046,0.039l-0.045,0.038l-0.046,0.038l-0.047,0.037l-0.046,0.036l-0.047,0.035l-0.048,0.034l-0.047,0.034l-0.048,0.033l-0.049,0.032l-0.049,0.031l-0.189,0.117l-0.195,0.12l-0.199,0.121l-0.206,0.123l-0.21,0.125l-0.215,0.127l-0.22,0.128l-0.224,0.13l-0.229,0.131l-0.234,0.133l-0.238,0.135l-0.242,0.136l-0.496,0.276l-0.512,0.281l0.001,-0.061l0.003,-0.062l0.005,-0.061l0.006,-0.062l0.031,-0.253l-1.389,-0.921l-0.042,-0.026l-0.043,-0.024l-0.044,-0.022l-0.045,-0.02l-0.046,-0.017l-0.046,-0.016l-0.047,-0.012l-0.048,-0.011l-0.048,-0.008l-0.048,-0.006l-0.049,-0.003l-0.049,-0.001l-0.049,0.001l-0.049,0.004l-0.049,0.006l-0.049,0.008l-0.048,0.012l-0.048,0.013l-0.047,0.016l-0.045,0.017l-0.045,0.02l-0.043,0.023l-0.043,0.024l-0.041,0.026l-0.04,0.028l-0.038,0.03l-0.037,0.032l-0.035,0.034l-0.034,0.036l-0.032,0.037l-0.03,0.039l-0.029,0.041l-0.921,1.39l-10.327,-6.848l-0.109,-0.073l-0.107,-0.075l-0.106,-0.076l-0.106,-0.078l-0.103,-0.079l-0.103,-0.08l-0.102,-0.082l-0.1,-0.084l-0.099,-0.085l-0.097,-0.086l-0.097,-0.088l-0.095,-0.089l-0.094,-0.09l-0.092,-0.092l-0.091,-0.093l-0.09,-0.094l-0.088,-0.095l-0.087,-0.097l-0.086,-0.098l-0.084,-0.1l-0.083,-0.1l-0.081,-0.102l-0.08,-0.103l-0.078,-0.104l-0.077,-0.106l-0.076,-0.106l-0.073,-0.108l-0.073,-0.109l-0.071,-0.109l-0.069,-0.111l-0.068,-0.112l-0.066,-0.113l0,-0.001l-0.026,-0.045l-0.027,-0.043l-0.028,-0.044l-0.029,-0.042l-0.03,-0.042l-0.031,-0.041l-0.032,-0.04l-0.032,-0.039l-0.034,-0.039l-0.034,-0.038l-0.035,-0.037l-0.035,-0.037l-0.037,-0.035l-0.037,-0.035l-0.038,-0.034l-0.039,-0.033l-0.04,-0.032l-0.04,-0.031l-0.041,-0.031l-0.041,-0.029l-0.042,-0.029l-0.043,-0.028l-0.044,-0.026l-0.044,-0.026l-0.045,-0.025l-0.045,-0.024l-0.046,-0.023l-0.046,-0.022l-0.047,-0.021l-0.048,-0.02l-0.048,-0.018l-0.048,-0.018l-4.013,-1.422l-0.021,-0.007l-0.02,-0.006l-0.02,-0.005l-0.02,-0.003l-0.021,-0.004l-0.02,-0.002l-0.02,-0.001l-0.021,-0.001l-0.02,0.001l-0.02,0.001l-0.02,0.002l-0.02,0.003l-0.02,0.003l-0.019,0.005l-0.02,0.005l-0.019,0.006l-0.019,0.006l-0.018,0.008l-0.019,0.008l-0.018,0.009l-0.017,0.01l-0.018,0.01l-0.016,0.012l-0.017,0.012l-0.016,0.012l-0.015,0.014l-0.015,0.014l-0.014,0.014l-0.014,0.016l-0.014,0.016l-0.012,0.016l-0.012,0.018l-1.049,1.581l-0.011,0.018l-0.011,0.018l-0.009,0.019l-0.009,0.018l-0.008,0.019l-0.007,0.02l-0.006,0.019l-0.006,0.02l-0.004,0.019l-0.004,0.02l-0.003,0.02l-0.002,0.02l-0.002,0.02l0,0.02l0,0.02l0.001,0.02l0.002,0.02l0.003,0.02l0.004,0.02l0.004,0.02l0.005,0.019l0.006,0.019l0.007,0.019l0.008,0.019l0.008,0.019l0.009,0.018l0.01,0.018l0.011,0.017l0.011,0.018l0.013,0.016l0.013,0.017l0.014,0.015l2.872,3.144l0.035,0.038l0.036,0.037l0.037,0.036l0.037,0.035l0.039,0.034l0.039,0.033l0.039,0.033l0.04,0.031l0.041,0.031l0.042,0.03l0.042,0.028l0.043,0.028l0.043,0.027l0.044,0.026l0.045,0.024l0.045,0.024l0.045,0.023l0.046,0.022l0.047,0.021l0.047,0.02l0.047,0.018l0.048,0.018l0.048,0.017l0.049,0.015l0.049,0.015l0.049,0.013l0.05,0.013l0.05,0.011l0.051,0.01l0.05,0.01l0.051,0.007l0.052,0.007l0.13,0.017l0.129,0.019l0.13,0.021l0.128,0.022l0.129,0.024l0.128,0.027l0.127,0.028l0.127,0.029l0.126,0.032l0.126,0.034l0.126,0.035l0.125,0.037l0.124,0.039l0.124,0.04l0.123,0.043l0.122,0.044l0.122,0.046l0.121,0.048l0.12,0.049l0.12,0.051l0.119,0.053l0.118,0.055l0.118,0.056l0.116,0.059l0.116,0.059l0.115,0.062l0.115,0.063l0.113,0.065l0.112,0.067l0.112,0.068l0.111,0.07l0.109,0.072l10.327,6.847l-0.243,0.367l-1.277,0.66l-1.29,0.666l-1.294,0.667l-1.29,0.667l-0.641,0.332l-0.636,0.331l-0.631,0.329l-0.624,0.327l-0.617,0.325l-0.607,0.322l-0.598,0.319l-0.587,0.315l-0.242,0.133l-0.243,0.132l-0.486,0.261l-0.487,0.26l-0.489,0.258l-0.977,0.516l-0.488,0.259l-0.488,0.26l-0.243,0.132l-0.242,0.132l-0.243,0.132l-0.241,0.134l-0.241,0.135l-0.241,0.135l-0.239,0.137l-0.239,0.139l-0.238,0.139l-0.237,0.141l-0.237,0.143l-0.235,0.144l-0.234,0.146l-0.233,0.148l-0.232,0.15l-0.231,0.152l-0.051,0.044l-0.05,0.045l-0.049,0.046l-0.048,0.047l-0.046,0.048l-0.046,0.048l-0.045,0.05l-0.044,0.05l-0.043,0.051l-0.042,0.052l-0.041,0.052l-0.04,0.053l-0.039,0.054l-0.038,0.055l-0.036,0.055l-0.036,0.056l-0.035,0.056l-0.034,0.058l-0.033,0.057l-0.032,0.059l-0.031,0.059l-0.03,0.059l-0.029,0.06l-0.028,0.061l-0.027,0.061l-0.026,0.061l-0.025,0.062l-0.024,0.063l-0.023,0.062l-0.022,0.064l-0.021,0.063l-0.02,0.064l-0.019,0.065l-0.018,0.064l-0.017,0.065l-0.017,0.066l-0.015,0.065l-0.014,0.066l-0.013,0.067l-0.013,0.066l-0.011,0.066l-0.01,0.067l-0.01,0.067l-0.008,0.067l-0.008,0.068l-0.006,0.067l-0.006,0.068l-0.005,0.067l-0.003,0.068l-0.003,0.068l-0.002,0.068l-0.001,0.067l0.001,0.068l0.001,0.068l0.002,0.068l0.003,0.068l0.004,0.067l0.004,0.068l0.006,0.068l0.007,0.067l0.008,0.067l0.008,0.067l0.01,0.067l0.011,0.067l0.011,0.067l0.012,0.066l0.014,0.066l0.014,0.066l0.015,0.066l0.016,0.065l0.017,0.065l0.018,0.064l0.019,0.065l0.02,0.064l0.021,0.063l0.022,0.064l0.022,0.062l0.024,0.063l0.024,0.062l0.026,0.061l0.026,0.061l0.027,0.06l0.028,0.06l0.029,0.06l0.03,0.059l0.031,0.058l0.032,0.058l0.032,0.057l0.034,0.056l0.034,0.056l0.036,0.055l0.036,0.055l0.037,0.053l0.038,0.054l0.039,0.052l0.04,0.052l0.041,0.05l0.042,0.05l0.042,0.05l0.044,0.048l0.044,0.048l0.045,0.047l0.047,0.046l0.047,0.045l0.048,0.044l0.048,0.043l0.05,0.042l0.051,0.042l0.051,0.04l0.052,0.039l0.054,0.039l0.054,0.037l0.055,0.036l0.056,0.035l0.056,0.035l0.058,0.033l0.058,0.032l0.06,0.03l0.06,0.03l0.061,0.029l0.062,0.027l0.063,0.026l0.064,0.025l0.064,0.024l0.066,0.022l0.066,0.021l0.067,0.02l0.068,0.019l0.054,0.012l0.054,0.011l0.054,0.011l0.054,0.009l0.054,0.009l0.053,0.008l0.054,0.007l0.053,0.006l0.053,0.006l0.053,0.004l0.053,0.004l0.053,0.003l0.052,0.003l0.053,0.001l0.105,0.001l0.104,-0.002l0.103,-0.005l0.103,-0.008l0.103,-0.011l0.102,-0.013l0.102,-0.016l0.101,-0.018l0.101,-0.021l0.101,-0.023l0.1,-0.025l0.099,-0.028l0.099,-0.029l0.099,-0.032l0.098,-0.034l0.098,-0.035l0.098,-0.038l0.097,-0.039l0.097,-0.041l0.096,-0.042l0.096,-0.044l0.096,-0.045l0.095,-0.047l0.095,-0.048l0.095,-0.05l0.094,-0.05l0.094,-0.051l0.094,-0.053l0.093,-0.053l0.093,-0.055l0.093,-0.055l0.185,-0.112l0.184,-0.114l0.182,-0.116l0.182,-0.117l0.181,-0.118l0.359,-0.233l0.179,-0.115l0.178,-0.113l0.177,-0.11l0.177,-0.108l0.088,-0.052l0.088,-0.051l0.088,-0.05l0.088,-0.049l0.433,-0.277l0.438,-0.282l0.444,-0.287l0.448,-0.292l0.453,-0.296l0.458,-0.3l0.461,-0.304l0.464,-0.308l0.467,-0.31l0.47,-0.313l0.947,-0.634l0.952,-0.64l0.956,-0.646l0.956,-0.647l0.954,-0.646l1.887,-1.282l0.928,-0.629l0.913,-0.619l0.896,-0.605l0.876,-0.59l1.819,2.327l0.038,0.047l0.038,0.047l0.04,0.045l0.04,0.045l0.041,0.044l0.042,0.043l0.043,0.042l0.044,0.041l0.044,0.041l0.046,0.039l0.046,0.039l0.047,0.037l0.047,0.037l0.049,0.036l0.049,0.035l0.05,0.034l14.222,9.446l0.042,0.027l0.042,0.026l0.043,0.025l0.044,0.024l0.043,0.022l0.045,0.022l0.044,0.02l0.046,0.019l0.045,0.018l0.046,0.017l0.046,0.016l0.047,0.014l0.047,0.014l0.047,0.012l0.048,0.011l0.047,0.01l0.049,0.009l0.048,0.008l0.048,0.006l0.049,0.005l0.048,0.004l0.049,0.003l0.049,0.002l0.049,0.001l0.049,-0.001l0.049,-0.002l0.049,-0.003l0.049,-0.005l0.049,-0.005l0.049,-0.007l0.049,-0.008l0.049,-0.009l0.049,-0.011l0.048,-0.011l0.048,-0.013l0.047,-0.014l0.047,-0.015l0.047,-0.016l0.045,-0.018l0.046,-0.018l0.045,-0.019l0.044,-0.021l0.044,-0.022l0.043,-0.022l0.043,-0.024l0.042,-0.025l0.042,-0.025l0.041,-0.027l0.04,-0.028l0.039,-0.029l0.039,-0.029l0.038,-0.031l0.037,-0.032l0.037,-0.032l0.036,-0.033l0.035,-0.035l0.034,-0.035l0.033,-0.036l0.033,-0.037l0.031,-0.038l0.031,-0.038l0.03,-0.04l0.029,-0.04l0.028,-0.041l2.21,-3.334l0.028,-0.043l0.027,-0.044l0.025,-0.044l0.025,-0.045l0.023,-0.045l0.021,-0.045l0.021,-0.046l0.019,-0.046l0.018,-0.046l0.017,-0.047l0.016,-0.047l0.014,-0.047l0.013,-0.047l0.012,-0.048l0.011,-0.047l0.009,-0.048l0.009,-0.048l0.007,-0.048l0.006,-0.048l0.005,-0.048l0.004,-0.048l0.002,-0.049l0.001,-0.048l0.001,-0.048l-0.001,-0.048l-0.002,-0.048l-0.004,-0.048l-0.004,-0.048l-0.006,-0.048l-0.006,-0.047l-0.008,-0.047l-0.009,-0.047l-0.01,-0.047l-0.011,-0.047l-0.013,-0.046l-0.013,-0.046l-0.015,-0.046l-0.015,-0.046l-0.017,-0.045l-0.018,-0.044l-0.019,-0.045l-0.019,-0.044l-0.022,-0.043l-0.022,-0.043l-0.023,-0.043l-0.024,-0.041l-0.025,-0.042l-0.027,-0.041l-0.027,-0.04l-0.028,-0.04l-0.03,-0.039l-0.03,-0.038l-0.032,-0.038l-0.033,-0.037l-0.033,-0.037l-0.035,-0.035l-0.035,-0.035l-0.037,-0.035l-0.038,-0.033l-0.038,-0.032l-0.04,-0.032l-0.041,-0.031l-0.041,-0.03l-0.043,-0.029l-14.223,-9.447l-0.041,-0.027l-0.041,-0.026l-0.041,-0.025l-0.042,-0.024l-0.042,-0.024l-0.042,-0.023l-0.043,-0.022l-0.043,-0.022l-0.043,-0.021l-0.044,-0.02l-0.044,-0.02l-0.045,-0.019l-0.044,-0.018l-0.045,-0.017l-0.046,-0.017l-0.045,-0.016l0.241,-0.14l0.083,-0.047l0.085,-0.044l0.085,-0.043l0.087,-0.04l0.087,-0.039l0.088,-0.037l0.089,-0.035l0.09,-0.033l0.091,-0.031l0.092,-0.029l0.092,-0.028l0.093,-0.026l0.094,-0.025l0.095,-0.023l0.095,-0.021l0.095,-0.02l0.096,-0.018l0.097,-0.017l0.097,-0.015l0.097,-0.014l0.098,-0.013l0.098,-0.011l0.098,-0.01l0.098,-0.009l0.099,-0.008l0.099,-0.007l0.099,-0.005l0.099,-0.004l0.1,-0.004l0.099,-0.002l0.099,-0.001l0.099,-0.001l0.099,0.001l0.099,0.001l0.099,0.002l0.098,0.003l0.197,0.008l0.195,0.01l0.193,0.013l0.192,0.015l0.189,0.016l0.187,0.018l0.184,0.019l0.18,0.02l0.352,0.041l0.335,0.041l0.316,0.038l0.246,0.03l0.246,0.032l0.495,0.067l0.248,0.032l0.248,0.03l0.124,0.015l0.124,0.013l0.124,0.012l0.124,0.011l0.124,0.009l0.124,0.009l0.123,0.007l0.124,0.005l0.123,0.003l0.123,0.001l0.123,0l0.123,-0.003l0.123,-0.005l0.122,-0.008l0.122,-0.01l0.122,-0.013l0.122,-0.016l0.06,-0.009l0.061,-0.009l0.06,-0.011l0.061,-0.011l0.06,-0.012l0.06,-0.013l0.098,-0.023l0.099,-0.025l0.099,-0.029l0.1,-0.031l0.1,-0.033l0.101,-0.036l0.101,-0.039l0.101,-0.041l0.102,-0.044l0.102,-0.046l0.103,-0.048l0.102,-0.051l0.103,-0.053l0.103,-0.055l0.103,-0.058l0.102,-0.059l0.103,-0.062l0.103,-0.064l0.102,-0.066l0.102,-0.068l0.102,-0.069l0.102,-0.072l0.101,-0.074l0.101,-0.075l0.1,-0.077l0.1,-0.079l0.099,-0.081l0.099,-0.082l0.098,-0.084l0.097,-0.086l0.097,-0.087l0.095,-0.089l0.095,-0.09l0.094,-0.091l0.093,-0.093l0.092,-0.094l0.091,-0.096l0.09,-0.096l0.089,-0.098l0.087,-0.1l0.086,-0.1l0.085,-0.101l0.083,-0.103l0.083,-0.103l0.08,-0.105l0.079,-0.105l0.078,-0.106l0.076,-0.107l0.074,-0.108l0.073,-0.109l0.071,-0.109l0.069,-0.111l0.067,-0.11l0.065,-0.112l0.064,-0.112l0.061,-0.112l0.059,-0.113l0.058,-0.113l0.055,-0.114l0.052,-0.114l0.051,-0.114l0.048,-0.115l0.046,-0.115l0.044,-0.115l0.01,-0.027l0.009,-0.026l0.008,-0.025l0.006,-0.024l0.006,-0.023l0.004,-0.023l0.002,-0.022l0.002,-0.021l0.001,-0.02l-0.001,-0.02l-0.001,-0.019l-0.003,-0.018l-0.003,-0.017l-0.005,-0.017l-0.005,-0.016l-0.006,-0.016l-0.007,-0.015l-0.007,-0.014l-0.008,-0.013l-0.009,-0.013l-0.01,-0.013l-0.01,-0.011l-0.011,-0.012l-0.011,-0.01l-0.024,-0.02l-0.025,-0.018l-0.027,-0.016l-0.028,-0.014l-0.028,-0.012l-0.029,-0.011l-0.029,-0.009l-0.029,-0.008l-0.028,-0.007l-0.027,-0.005l-0.051,-0.008l-0.044,-0.005l-0.034,-0.002l-0.031,-0.001l-3.154,0.546l-0.069,0.01l-0.069,0.009l-0.069,0.006l-0.069,0.003l-0.069,0.001l-0.068,-0.001l-0.068,-0.004l-0.068,-0.006l-0.068,-0.008l-0.067,-0.011l-0.067,-0.012l-0.066,-0.015l-0.065,-0.018l-0.065,-0.019l-0.064,-0.022l-0.063,-0.023l-0.063,-0.026l-0.061,-0.028l-0.061,-0.03l-0.06,-0.032l-0.058,-0.034l-0.058,-0.036l-0.056,-0.038l-0.055,-0.041l-0.054,-0.042l-0.052,-0.043l-0.051,-0.046l-0.05,-0.048l-0.048,-0.05l-0.046,-0.051l-0.045,-0.053l-0.043,-0.055l-0.095,-0.124l-0.096,-0.127l-0.097,-0.13l-0.097,-0.132l-0.096,-0.135l-0.094,-0.137l-0.046,-0.069l-0.046,-0.069l-0.044,-0.069l-0.044,-0.07l-0.043,-0.07l-0.041,-0.069l-0.04,-0.07l-0.039,-0.07l-0.037,-0.069l-0.036,-0.07l-0.034,-0.069l-0.032,-0.069l-0.031,-0.068l-0.028,-0.068l-0.027,-0.068l-0.024,-0.067l-0.022,-0.067l-0.019,-0.066l-0.018,-0.065l-0.014,-0.065l-0.01,-0.052l-0.009,-0.054l-0.007,-0.055l-0.006,-0.057l-0.005,-0.059l-0.004,-0.061l-0.003,-0.061l-0.002,-0.063l-0.002,-0.064l0,-0.065l0.001,-0.066l0.002,-0.067l0.005,-0.135l0.008,-0.137l0,-0.045l0.001,-0.045l0.002,-0.045l0.002,-0.045l0.004,-0.045l0.005,-0.044l0.006,-0.044l0.006,-0.043l0.008,-0.044l0.008,-0.043l0.01,-0.043l0.01,-0.042l0.012,-0.042l0.012,-0.042l0.013,-0.041l0.014,-0.041l0.015,-0.041l0.016,-0.04l0.017,-0.04l0.017,-0.039l0.018,-0.039l0.019,-0.039l0.02,-0.038l0.021,-0.037l0.022,-0.037l0.022,-0.037l0.023,-0.036l0.024,-0.036l0.025,-0.035l0.025,-0.034l0.026,-0.034l0.027,-0.033l0.027,-0.033l0.028,-0.032l0.029,-0.032l0.03,-0.03l0.03,-0.031l0.031,-0.029l0.032,-0.029l0.032,-0.029l0.033,-0.027l0.033,-0.027l0.034,-0.026l0.035,-0.026l0.035,-0.024l0.036,-0.024l0.036,-0.024l0.037,-0.022l0.038,-0.022l0.038,-0.021l0.039,-0.02l0.039,-0.019l0.039,-0.019l0.04,-0.017l0.041,-0.017l0.041,-0.016l0.042,-0.015l0.042,-0.014l0.042,-0.013l0.043,-0.012l0.043,-0.012l0.044,-0.01l0.044,-0.01l0.045,-0.008l0.422,-0.084l0.447,-0.086l0.461,-0.087l0.462,-0.085l0.451,-0.082l0.428,-0.078l0.742,-0.133l0.038,-0.008l0.037,-0.009l0.036,-0.011l0.036,-0.012l0.035,-0.014l0.034,-0.015l0.033,-0.017l0.032,-0.018l0.032,-0.02l0.03,-0.021l0.029,-0.022l0.029,-0.023l0.027,-0.025l0.026,-0.025l0.025,-0.027l0.023,-0.028l0.023,-0.028l0.021,-0.03l0.02,-0.031l0.019,-0.031l0.017,-0.033l0.016,-0.033l0.014,-0.033l0.013,-0.035l0.012,-0.035l0.01,-0.036l0.008,-0.036l0.007,-0.037l0.005,-0.038l0.004,-0.038l0.001,-0.038l0,-0.039l-0.012,-0.045l-0.013,-0.047l-0.015,-0.047l-0.015,-0.048l-0.016,-0.049l-0.018,-0.049l-0.019,-0.05l-0.02,-0.051l-0.021,-0.051l-0.022,-0.051l-0.024,-0.053l-0.025,-0.052l-0.027,-0.053l-0.027,-0.054l-0.03,-0.053l-0.03,-0.055l-0.033,-0.054l-0.033,-0.055l-0.036,-0.055l-0.037,-0.056l-0.038,-0.056l-0.04,-0.055l-0.042,-0.056l-0.044,-0.057l-0.045,-0.056l-0.047,-0.056l-0.049,-0.057l-0.051,-0.057l-0.053,-0.056l-0.054,-0.057l-0.057,-0.056l-0.059,-0.057l-0.06,-0.056l-0.063,-0.056l-0.065,-0.056l-0.067,-0.056l-0.069,-0.056l-0.071,-0.055l-0.074,-0.056l-0.076,-0.055l-0.078,-0.054l-0.08,-0.055l-0.083,-0.053l-0.085,-0.054l-0.088,-0.053l-0.09,-0.053l-0.092,-0.052l-0.095,-0.052l-0.098,-0.051l-0.1,-0.05l-0.103,-0.05l-0.106,-0.05l-0.108,-0.048l-0.111,-0.049l-0.114,-0.047l-0.116,-0.047l-0.12,-0.045l-0.122,-0.046l-0.125,-0.044l-0.128,-0.043l-0.131,-0.043l-0.134,-0.042l-0.137,-0.041l-0.141,-0.04l-0.101,-0.027l-0.1,-0.026l-0.1,-0.024l-0.1,-0.022l-0.099,-0.021l-0.098,-0.019l-0.098,-0.018l-0.097,-0.016l-0.097,-0.015l-0.096,-0.013l-0.096,-0.011l-0.095,-0.011l-0.094,-0.008l-0.095,-0.008l-0.093,-0.005l-0.093,-0.005l-0.092,-0.003l-0.092,-0.002l-0.091,0l-0.091,0.001Z"/>
    <path id="Wrench1" serif:id="Wrench" d="M44.914,11.767c0.408,-0.073 0.702,-0.432 0.692,-0.846c-0.252,-0.969 -1.159,-2.471 -4.182,-3.312c-4.322,-1.202 -7.215,2.166 -7.881,3.746c-1.052,2.498 -2.107,6.121 -4.201,7.432c-4.225,2.645 -12.727,6.763 -19.068,10.183c-2.578,1.418 -5.252,2.687 -7.706,4.318c-2.196,1.869 -1.619,6.242 1.3,7.006c2.317,0.539 4.254,-1.344 6.127,-2.374c7.175,-4.573 16.843,-11.509 21.297,-14.075c1.765,-1.017 4.294,-0.605 5.928,-0.414c1.309,0.153 2.655,0.439 3.939,0.156c2.081,-0.459 4.654,-2.813 5.558,-5.27c0.236,-0.58 -0.483,-0.571 -0.483,-0.571c0,0 -1.929,0.334 -3.154,0.546c-0.737,0.127 -1.483,-0.167 -1.935,-0.763c-0.501,-0.648 -1.099,-1.466 -1.24,-2.152c-0.056,-0.271 -0.057,-0.629 -0.032,-0.996c-0.017,-0.97 0.673,-1.808 1.628,-1.979c1.082,-0.218 2.559,-0.482 3.413,-0.635Z" style="fill:#b1bdc6;fill-rule:nonzero;"/>
    <g id="ScrewDriver">
        <path id="Tip" d="M25.054,26.291l1.473,-2.223c0,0 -10.503,-6.965 -14.771,-9.795c-1.165,-0.772 -2.134,-1.806 -2.831,-3.017c0,-0.001 0,-0.001 0,-0.001c-0.275,-0.479 -0.712,-0.843 -1.232,-1.027c-1.143,-0.405 -3.186,-1.129 -4.013,-1.422c-0.213,-0.076 -0.45,0.003 -0.575,0.192c-0.28,0.422 -0.769,1.159 -1.049,1.581c-0.125,0.189 -0.106,0.438 0.047,0.604c0.592,0.648 2.054,2.249 2.872,3.144c0.372,0.407 0.878,0.668 1.425,0.735c0.001,0 0.001,0 0.001,0c1.387,0.17 2.716,0.661 3.881,1.434c4.269,2.83 14.772,9.795 14.772,9.795Z" style="fill:#e5e5e5;"/>
        <path id="Body" d="M41.541,40.438c0.442,0.294 0.983,0.4 1.503,0.295c0.52,-0.105 0.977,-0.413 1.271,-0.855c0.675,-1.019 1.535,-2.316 2.21,-3.334c0.61,-0.92 0.36,-2.16 -0.56,-2.771c-3.664,-2.434 -12.255,-8.14 -14.223,-9.447c-0.269,-0.179 -0.566,-0.313 -0.878,-0.398c-0.84,-0.227 -2.576,-0.695 -3.286,-0.887c-0.207,-0.056 -0.405,-0.145 -0.584,-0.264c-0.105,-0.07 -0.232,-0.154 -0.366,-0.243c-0.631,-0.419 -0.972,-1.158 -0.88,-1.91c0.019,-0.151 0.031,-0.253 0.031,-0.253c0,0 -0.758,-0.503 -1.389,-0.921c-0.221,-0.146 -0.491,-0.199 -0.751,-0.147c-0.26,0.053 -0.488,0.207 -0.635,0.428c-0.849,1.281 -2.466,3.719 -3.316,5c-0.146,0.221 -0.199,0.492 -0.146,0.752c0.052,0.26 0.206,0.488 0.427,0.635c0.631,0.418 1.389,0.921 1.389,0.921c0,0 0.089,-0.052 0.221,-0.127c0.657,-0.378 1.47,-0.352 2.102,0.067c0.134,0.089 0.261,0.173 0.366,0.243c0.179,0.119 0.338,0.265 0.47,0.435c0.454,0.58 1.563,1.998 2.098,2.683c0.198,0.254 0.436,0.474 0.704,0.652c1.963,1.304 10.556,7.011 14.222,9.446Z" style="fill:url(#_Linear1);"/>
    </g>
    <defs>
        <linearGradient id="_Linear1" x1="0" y1="0" x2="1" y2="0" gradientUnits="userSpaceOnUse" gradientTransform="matrix(-4.42116,6.66733,-28.8918,-19.1584,38.0026,28.4767)"><stop offset="0" style="stop-color:#2953db;stop-opacity:1"/><stop offset="1" style="stop-color:#244fda;stop-opacity:1"/></linearGradient>
    </defs>
</svg>
