<?xml version="1.0" encoding="UTF-8" standalone="no"?><!DOCTYPE svg PUBLIC "-//W3C//DTD SVG 1.1//EN" "http://www.w3.org/Graphics/SVG/1.1/DTD/svg11.dtd"><svg width="100%" height="100%" viewBox="0 0 20 20" version="1.1" xmlns="http://www.w3.org/2000/svg" xmlns:xlink="http://www.w3.org/1999/xlink" xml:space="preserve" style="fill-rule:evenodd;clip-rule:evenodd;stroke-linejoin:round;stroke-miterlimit:1.41421;"><path id="Outline" d="M5,20l0,-19l14.5,10l-13.05,9l-1.45,0Z" style="fill:#dedede;"/><path id="Fg" d="M18,11l-12,8l0,-16l12,8Z" style="fill:#0d79f2;"/><path id="StarOutline" d="M5,2.879l0,-2.879l3,0l0,2.879l2.036,-2.036l2.121,2.121l-2.036,2.036l2.879,0l0,3l-2.879,0l2.036,2.036l-2.121,2.121l-2.036,-2.036l0,2.879l-3,0l0,-2.879l-2.036,2.036l-2.121,-2.121l2.036,-2.036l-2.879,0l0,-3l2.879,0l-2.036,-2.036l2.121,-2.121l2.036,2.036Z" style="fill:#ccc;"/><path id="StarFg" d="M7,12l-1,0l0,-4.293l-3.036,3.036l-0.707,-0.707l3.036,-3.036l-4.293,0l0,-1l4.293,0l-3.036,-3.036l0.707,-0.707l3.036,3.036l0,-4.293l1,0l0,4.293l3.036,-3.036l0.707,0.707l-3.036,3.036l4.293,0l0,1l-4.293,0l3.036,3.036l-0.707,0.707l-3.036,-3.036l0,4.293Zm0,-6l-1,0l0,1l1,0l0,-1Z" style="fill:#c27d1a;"/></svg>